{"glyphs":{"0":{"ha":549,"x_min":44,"x_max":548,"o":"m 221 -23 l 221 -23 q 123 4 162 -23 q 64 76 83 31 q 44 176 44 121 l 44 176 q 68 294 44 233 q 134 406 91 354 q 234 491 176 458 q 359 523 291 523 l 359 523 q 406 510 386 523 q 426 473 426 496 l 426 473 q 420 459 426 459 l 420 459 q 420 460 420 459 q 418 461 419 460 l 418 461 q 395 480 410 475 q 367 484 380 484 l 367 484 q 269 458 318 484 q 180 385 220 431 q 115 279 139 338 q 90 154 90 219 l 90 154 q 102 80 90 114 q 141 25 114 46 q 210 4 167 4 l 210 4 q 317 36 265 4 q 411 121 369 68 q 478 238 453 174 q 503 365 503 302 l 503 365 q 457 489 503 443 l 457 489 q 418 513 443 503 q 368 528 393 522 q 324 536 342 533 q 306 540 306 539 l 306 540 q 314 550 306 545 q 333 554 322 554 l 333 554 q 443 525 394 554 q 520 446 491 496 q 548 333 548 396 l 548 333 q 522 207 548 270 q 451 92 496 144 q 346 9 405 40 q 221 -23 287 -23 z"},"1":{"ha":312,"x_min":0,"x_max":370,"o":"m 6 -21 l 6 -21 q 0 -15 0 -21 l 0 -15 q 16 12 0 4 q 58 22 31 19 q 118 28 85 24 l 118 28 q 141 107 124 57 q 180 217 157 157 q 226 337 202 277 q 271 446 250 397 l 271 446 q 241 417 259 434 q 203 383 223 400 q 167 354 183 365 q 141 342 150 342 l 141 342 q 136 346 136 342 l 136 346 q 156 368 137 350 q 199 409 174 386 q 239 450 223 432 l 239 450 q 269 487 252 464 q 302 527 286 509 q 328 545 318 545 l 328 545 q 354 539 337 545 q 370 522 370 533 l 370 522 q 306 393 339 461 q 243 256 273 324 q 189 130 212 188 q 154 29 166 71 l 154 29 l 196 29 q 237 29 216 29 q 274 25 257 28 l 274 25 q 284 16 284 24 l 284 16 q 266 6 284 6 l 266 6 q 235 7 251 6 q 201 7 218 7 l 201 7 q 176 7 189 7 q 149 5 163 6 l 149 5 l 149 4 q 127 -5 142 -5 l 127 -5 q 116 0 120 -5 l 116 0 q 61 -12 90 -4 q 6 -21 32 -21 z"},"2":{"ha":583,"x_min":58,"x_max":597,"o":"m 419 -16 l 419 -16 q 386 -12 415 -16 q 313 1 356 -8 q 223 21 269 9 q 141 47 177 32 l 141 47 q 124 31 139 44 q 92 6 109 18 q 64 -7 74 -7 l 64 -7 q 58 0 58 -7 l 58 0 q 88 65 58 50 q 161 80 118 80 l 161 80 q 243 130 195 100 q 340 195 290 159 q 433 271 390 231 q 503 350 476 310 q 529 425 529 389 l 529 425 q 497 488 529 465 q 412 510 465 510 l 412 510 q 378 508 396 510 q 341 500 359 505 l 341 500 q 307 489 330 497 q 259 468 284 481 q 216 440 233 455 q 198 406 198 424 l 198 406 q 202 394 198 400 q 205 382 205 388 l 205 382 q 198 373 205 373 l 198 373 q 181 389 190 373 q 171 418 171 405 l 171 418 q 192 461 171 441 q 241 497 212 481 q 298 522 270 512 q 342 535 326 532 l 342 535 q 384 542 363 539 q 424 544 405 544 l 424 544 q 548 515 499 544 q 597 435 597 486 l 597 435 q 569 355 597 396 q 496 274 541 314 q 396 198 450 234 q 289 130 342 161 q 192 76 235 99 l 192 76 q 332 44 274 63 q 431 25 389 25 l 431 25 q 503 33 469 25 q 541 60 536 41 l 541 60 q 554 72 546 72 l 554 72 q 561 63 561 72 l 561 63 q 546 30 561 44 q 507 5 530 15 q 460 -10 484 -5 q 419 -16 436 -16 z"},"3":{"ha":540,"x_min":40,"x_max":509,"o":"m 186 -28 l 186 -28 q 140 -24 165 -28 q 92 -11 114 -21 q 55 18 69 -1 q 40 69 40 37 l 40 69 q 48 103 40 86 q 68 119 55 119 l 68 119 q 85 103 85 119 l 85 103 q 83 87 85 95 q 80 69 80 78 l 80 69 q 100 23 82 40 q 143 -1 118 6 q 187 -9 167 -9 l 187 -9 q 270 8 228 -9 q 348 56 312 25 q 405 125 383 86 q 427 209 427 164 l 427 209 q 406 260 427 237 q 342 294 385 282 l 342 294 q 295 288 317 293 q 255 282 272 282 l 255 282 l 249 282 q 231 290 236 283 q 225 303 225 296 l 225 303 q 231 317 225 311 q 248 322 236 322 l 248 322 q 273 320 259 322 q 300 317 286 317 l 300 317 q 375 333 340 317 q 432 373 410 348 q 453 427 453 398 l 453 427 q 425 484 453 459 q 350 508 397 508 l 350 508 q 306 503 331 508 q 258 486 281 497 q 219 458 234 475 q 203 416 203 440 l 203 416 q 198 407 203 411 q 187 403 192 403 l 187 403 q 181 412 181 403 l 181 412 q 206 482 181 453 q 273 525 231 510 q 367 539 315 539 l 367 539 q 437 528 404 539 q 489 494 469 517 q 509 435 509 471 l 509 435 q 481 358 509 397 q 395 301 453 319 l 395 301 q 460 274 433 300 q 486 205 486 248 l 486 205 q 458 108 486 151 q 384 35 429 65 q 287 -12 339 4 q 186 -28 234 -28 z"},"4":{"ha":469,"x_min":10,"x_max":509,"o":"m 232 -36 l 232 -36 q 221 -25 221 -36 l 221 -25 q 239 57 221 -1 q 279 181 256 114 l 279 181 l 129 196 q 118 197 123 197 q 106 197 112 197 l 106 197 q 63 188 80 197 q 34 169 45 178 q 13 159 22 159 l 13 159 q 10 164 10 159 l 10 164 q 36 214 10 189 q 111 271 62 238 q 225 351 159 303 l 225 351 q 307 418 268 382 q 377 485 346 453 q 426 538 407 517 q 447 558 445 558 l 447 558 q 471 547 456 558 q 486 527 486 536 l 486 527 q 484 522 486 523 l 484 522 q 412 379 452 455 q 336 222 372 302 l 336 222 q 400 232 366 224 q 460 253 434 240 q 490 282 486 265 l 490 282 q 504 296 495 296 l 504 296 q 509 288 509 296 l 509 288 q 489 241 509 261 q 438 208 468 221 q 377 187 407 194 q 325 180 346 180 l 325 180 q 308 162 317 180 q 290 116 298 144 q 274 59 281 88 q 262 6 266 29 q 255 -25 257 -17 l 255 -25 l 255 -28 q 232 -36 247 -36 z m 296 223 l 296 223 q 332 317 314 272 q 365 397 350 362 q 385 446 379 431 l 385 446 q 336 403 370 430 q 259 344 301 375 q 178 284 217 312 q 112 238 138 255 l 112 238 l 118 238 l 131 239 l 137 239 q 221 233 178 239 q 296 223 263 226 z"},"5":{"ha":546,"x_min":-2,"x_max":597,"o":"m 167 -29 l 167 -29 q 112 -25 141 -29 q 57 -9 83 -21 q 15 25 31 2 q -2 84 -2 47 l -2 84 q 6 122 -2 102 q 30 141 13 141 l 30 141 q 44 137 38 141 q 50 124 50 132 l 50 124 q 47 104 50 115 q 44 84 44 93 l 44 84 q 66 31 46 51 q 114 3 86 11 q 165 -6 142 -6 l 165 -6 q 263 13 213 -6 q 354 67 312 32 q 422 147 396 101 q 448 246 448 192 l 448 246 q 432 301 448 280 q 389 331 415 321 q 333 340 363 340 l 333 340 q 267 328 296 340 q 216 301 238 316 q 178 273 194 285 q 151 261 162 261 l 151 261 q 142 270 142 261 l 142 270 q 153 304 142 281 q 181 353 164 326 q 216 405 198 379 q 249 451 234 431 q 268 477 263 470 l 268 477 q 260 494 264 485 q 255 509 255 502 l 255 509 q 282 528 255 522 q 351 534 308 533 q 441 535 394 535 l 441 535 l 472 535 q 529 534 500 535 q 578 530 558 533 q 597 517 597 526 l 597 517 q 591 508 597 512 q 572 503 585 503 l 572 503 q 503 503 542 503 q 425 500 464 502 q 356 493 386 497 q 311 481 325 489 l 311 481 q 289 454 305 477 q 253 400 272 431 q 217 337 233 368 l 217 337 q 277 357 240 352 q 345 362 314 362 l 345 362 q 403 357 373 362 q 459 339 433 352 q 500 302 484 325 q 516 242 516 278 l 516 242 q 483 130 516 180 q 398 45 450 80 q 284 -10 345 9 q 167 -29 223 -29 z"},"6":{"ha":516,"x_min":60,"x_max":509,"o":"m 215 -18 l 215 -18 q 125 3 159 -18 q 75 59 90 24 q 60 137 60 94 l 60 137 q 84 261 60 201 q 147 372 108 321 q 233 461 186 422 q 324 520 279 499 q 404 541 369 541 l 404 541 q 453 532 429 541 q 493 502 477 523 q 509 441 509 480 l 509 441 q 508 416 509 431 q 494 401 506 401 l 494 401 q 486 406 486 401 l 486 406 l 486 412 l 487 424 q 399 513 487 513 l 399 513 q 334 493 370 513 q 260 435 297 472 q 193 350 223 398 q 143 245 162 301 q 124 129 124 188 l 124 129 q 148 43 124 79 q 234 7 172 7 l 234 7 q 314 34 280 7 q 369 102 348 61 q 393 181 389 142 l 393 181 q 395 192 395 186 q 395 203 395 198 l 395 203 q 382 256 395 236 q 348 284 368 275 q 306 292 327 292 l 306 292 q 261 280 281 292 q 223 254 240 268 l 223 254 q 214 250 220 250 l 214 250 q 208 255 208 250 l 208 255 q 227 281 208 267 q 273 303 246 294 q 321 312 299 312 l 321 312 q 381 302 352 312 q 428 268 409 291 q 447 205 447 245 l 447 205 q 427 121 447 161 q 373 49 407 80 q 298 0 339 18 q 215 -18 257 -18 z"},"7":{"ha":416,"x_min":108,"x_max":569,"o":"m 127 -10 l 127 -10 q 108 0 108 -10 l 108 0 q 131 44 108 10 q 190 127 153 78 q 269 229 226 175 q 354 333 312 282 q 430 422 396 383 q 481 479 464 461 l 481 479 q 387 490 436 487 q 287 493 337 493 l 287 493 q 172 470 207 493 q 126 408 137 446 l 126 408 q 116 396 124 396 l 116 396 q 108 407 108 396 l 108 407 q 141 490 119 463 q 199 526 163 517 q 285 535 234 535 l 285 535 q 317 534 293 535 q 370 530 340 532 q 430 525 400 527 q 483 520 460 522 q 513 516 506 518 l 513 516 q 534 536 520 526 q 557 546 547 546 l 557 546 q 569 526 569 546 l 569 526 q 555 502 569 510 q 528 481 540 494 l 528 481 q 396 327 457 403 q 280 171 334 250 q 174 2 226 91 l 174 2 q 154 -6 168 -2 q 127 -10 139 -10 z"},"8":{"ha":490,"x_min":34,"x_max":511,"o":"m 147 -11 l 147 -11 q 95 -5 121 -11 q 51 16 68 0 q 34 62 34 31 l 34 62 q 56 136 34 101 q 111 201 77 171 q 183 253 144 230 q 255 291 221 276 l 255 291 q 195 325 221 303 q 169 392 169 347 l 169 392 q 190 464 169 433 q 245 516 211 495 q 320 548 279 537 q 399 558 360 558 l 399 558 q 482 539 452 558 q 511 486 511 520 l 511 486 q 485 414 511 445 q 423 359 459 382 q 353 318 386 335 l 353 318 q 417 276 390 302 q 444 208 444 249 l 444 208 q 424 134 444 168 q 369 74 403 100 q 296 28 335 47 q 217 -1 256 9 q 147 -11 178 -11 z m 322 330 l 332 327 q 375 349 351 336 q 421 379 399 362 q 458 416 443 396 q 472 459 472 436 l 472 459 q 442 514 472 496 q 369 532 411 532 l 369 532 q 300 519 335 532 q 241 481 265 506 q 217 418 217 456 l 217 418 q 234 376 217 392 q 276 349 251 359 q 322 330 300 339 l 322 330 z m 181 27 l 181 27 q 291 50 241 27 q 370 109 340 73 q 399 180 399 144 l 399 180 q 371 239 399 217 q 278 283 343 260 l 278 283 q 211 247 246 268 q 144 200 175 225 q 93 146 112 174 q 73 90 73 118 l 73 90 q 89 52 73 66 q 130 33 105 38 q 181 27 154 27 z"},"9":{"ha":497,"x_min":41,"x_max":490,"o":"m 146 -15 l 146 -15 q 97 -6 121 -15 q 57 26 73 3 q 41 87 41 48 l 41 87 q 42 111 41 95 q 55 127 43 127 l 55 127 q 64 121 64 127 l 64 121 l 64 115 l 62 102 q 151 13 62 13 l 151 13 q 219 34 182 13 q 293 93 256 55 q 360 179 329 130 q 409 284 390 228 q 427 398 427 340 l 427 398 q 403 485 427 448 q 316 521 378 521 l 316 521 q 251 503 280 521 q 200 456 221 485 q 168 392 179 426 q 157 324 157 357 l 157 324 q 185 256 157 276 q 244 236 213 236 l 244 236 q 289 248 269 236 q 327 274 308 260 l 327 274 q 337 278 330 278 l 337 278 q 344 272 344 278 l 344 272 q 325 248 344 261 q 279 225 305 234 q 229 216 252 216 l 229 216 q 170 226 199 216 q 122 260 141 236 q 103 323 103 283 l 103 323 q 123 407 103 367 q 177 478 143 447 q 252 528 210 509 q 336 546 293 546 l 336 546 q 426 525 392 546 q 475 469 460 504 q 490 391 490 434 l 490 391 q 466 266 490 326 q 403 154 442 205 q 317 65 363 103 q 226 6 271 27 q 146 -15 181 -15 z"}," ":{"ha":219,"x_min":0,"x_max":0,"o":""},"A":{"ha":847,"x_min":11,"x_max":917,"o":"m 142 -83 l 142 -83 q 79 -72 109 -83 q 30 -37 49 -61 q 11 24 11 -13 l 11 24 q 16 41 11 33 q 24 48 20 48 l 24 48 q 32 24 32 48 l 32 24 q 61 -29 32 -10 l 61 -29 q 123 -44 84 -44 l 123 -44 q 204 -30 162 -44 q 284 10 246 -16 l 284 10 q 385 97 329 40 q 500 220 440 153 l 500 220 q 405 231 452 225 q 309 237 357 237 l 309 237 q 245 231 277 237 q 187 206 213 224 q 148 153 161 188 l 148 153 q 146 144 147 149 q 144 134 144 139 l 144 134 q 149 116 144 124 l 149 116 q 151 109 151 110 l 151 109 q 143 100 151 100 l 143 100 q 132 107 136 100 l 132 107 q 122 153 122 125 l 122 153 q 142 234 122 206 q 194 272 161 262 q 265 282 227 282 l 265 282 q 301 281 282 282 q 337 277 319 279 l 337 277 q 428 264 381 273 q 522 244 475 254 l 522 244 q 625 367 574 305 q 719 485 675 429 q 794 580 763 540 l 794 580 q 798 584 795 583 l 798 584 q 801 586 800 586 l 801 586 q 829 597 812 592 q 852 601 846 601 l 852 601 q 862 590 862 601 l 862 590 q 857 579 862 587 l 857 579 q 772 405 807 494 q 709 222 736 316 l 709 222 l 707 215 q 720 215 713 215 q 731 214 726 214 l 731 214 q 804 223 774 211 l 804 223 q 834 246 826 231 l 834 246 q 839 250 837 250 l 839 250 q 846 245 844 250 q 845 234 848 239 l 845 234 q 806 206 834 215 l 806 206 q 770 197 790 199 q 727 196 749 195 l 727 196 l 721 196 l 709 197 l 703 197 q 682 83 688 142 l 682 83 q 681 74 681 78 q 681 64 681 69 l 681 64 q 712 7 681 7 l 712 7 q 760 25 732 7 q 816 69 787 43 q 867 121 844 95 q 901 161 890 146 l 901 161 q 907 163 903 163 l 907 163 q 913 152 917 163 l 913 152 q 896 129 911 149 q 855 80 881 108 q 794 23 829 51 l 794 23 q 739 -5 766 1 q 697 -12 711 -12 l 697 -12 q 653 14 669 -12 q 636 79 636 39 l 636 79 q 642 139 636 108 q 656 201 648 170 l 656 201 q 597 208 627 204 q 537 215 567 211 l 537 215 q 418 79 477 142 q 306 -24 358 15 l 306 -24 q 226 -67 267 -52 q 142 -83 184 -83 z m 660 220 l 660 220 q 703 361 678 290 q 751 489 727 431 l 751 489 l 756 501 q 662 373 713 441 q 557 238 610 305 l 557 238 q 609 229 583 233 q 660 220 635 224 z"},"B":{"ha":653,"x_min":14,"x_max":730,"o":"m 373 -61 l 373 -61 q 278 -39 316 -61 q 233 29 240 -17 l 233 29 l 233 35 q 215 9 225 24 q 193 -16 204 -6 q 169 -27 181 -27 l 169 -27 q 158 -25 167 -27 q 140 -20 148 -23 q 130 -13 131 -17 l 130 -13 q 140 42 127 6 q 173 120 152 77 q 216 206 193 163 q 257 284 238 249 q 284 336 276 318 l 284 336 q 292 355 290 347 q 294 366 294 362 l 294 366 q 292 376 294 372 l 292 376 q 307 408 294 388 q 338 448 319 428 q 379 482 357 468 q 420 495 401 495 l 420 495 q 439 492 426 495 q 463 481 451 488 q 477 461 474 474 l 477 461 q 478 455 478 458 l 478 455 q 476 452 478 452 l 476 452 q 471 454 474 452 q 465 455 467 455 l 465 455 q 415 433 442 455 q 360 374 388 411 q 304 293 331 337 q 253 205 277 249 q 210 123 228 160 q 182 62 192 85 l 182 62 q 174 31 174 40 l 174 31 q 185 17 174 17 l 185 17 q 215 36 199 17 l 215 36 q 236 61 226 49 q 252 70 245 72 l 252 70 q 271 63 266 70 q 277 45 276 55 q 279 27 278 35 l 279 27 q 312 -24 286 -4 q 383 -45 337 -45 l 383 -45 q 471 -29 432 -45 q 533 16 510 -13 q 556 80 556 44 l 556 80 q 544 133 556 105 q 506 188 532 160 l 506 188 q 457 237 484 214 q 411 280 430 260 q 391 313 391 299 l 391 313 q 407 335 391 325 q 433 344 423 344 l 433 344 q 492 353 456 344 q 565 378 527 362 q 635 412 603 393 q 681 450 666 431 l 681 450 q 696 474 690 461 q 701 498 701 486 l 701 498 q 685 533 701 517 q 629 555 668 548 l 629 555 q 603 559 618 558 q 571 560 588 560 l 571 560 q 453 551 520 560 q 317 523 386 541 q 188 478 248 505 q 90 416 128 451 q 46 337 51 380 l 46 337 q 58 299 44 312 q 91 280 72 286 q 121 267 110 273 l 121 267 q 130 259 130 263 l 130 259 q 119 254 130 254 l 119 254 q 89 260 107 254 q 54 279 71 266 q 25 309 36 291 q 17 351 14 327 l 17 351 q 16 359 17 353 q 15 367 15 364 l 15 367 q 43 428 18 399 q 101 481 67 457 q 163 521 134 505 l 163 521 q 240 553 195 538 q 337 578 285 567 q 441 596 388 589 q 540 602 494 602 l 540 602 q 626 594 589 602 l 626 594 q 703 555 676 583 q 730 493 730 527 l 730 493 q 708 429 729 456 q 652 382 686 401 q 579 351 618 363 q 501 332 539 338 q 435 325 463 326 l 435 325 q 519 270 477 300 q 588 203 560 239 q 615 124 615 167 l 615 124 q 605 75 615 100 q 571 20 594 49 l 571 20 q 488 -39 541 -17 q 373 -61 434 -61 z"},"C":{"ha":534,"x_min":21,"x_max":609,"o":"m 211 -46 l 211 -46 q 116 -28 159 -46 q 47 26 72 -11 q 21 119 21 62 l 21 119 q 30 188 21 151 l 30 188 q 77 306 44 247 q 155 417 109 365 q 254 510 200 469 q 366 574 308 550 q 480 597 423 597 l 480 597 q 515 594 497 597 l 515 594 q 575 565 555 587 q 594 513 594 542 l 594 513 q 572 445 594 479 q 515 381 550 411 q 438 326 479 350 q 356 287 396 302 q 285 270 316 272 l 285 270 q 266 281 266 269 l 266 281 q 273 294 266 287 q 291 301 279 300 l 291 301 q 437 349 369 308 q 540 459 504 389 l 540 459 q 553 490 548 474 q 557 519 557 505 l 557 519 q 545 557 557 541 q 501 572 532 572 l 501 572 q 421 552 467 572 q 325 494 375 531 q 226 407 274 457 q 139 297 177 356 q 79 171 100 237 l 79 171 q 66 97 66 131 l 66 97 q 108 8 66 36 q 217 -21 150 -21 l 217 -21 q 345 -1 275 -21 q 480 61 414 19 q 591 166 546 102 l 591 166 q 598 170 594 170 l 598 170 q 606 166 602 170 q 606 158 609 162 l 606 158 q 487 41 554 86 q 347 -25 419 -4 q 211 -46 275 -46 z"},"D":{"ha":868,"x_min":78,"x_max":906,"o":"m 239 -63 l 239 -63 q 209 -51 220 -63 q 191 -23 197 -39 q 183 8 185 -7 q 181 29 181 23 l 181 29 q 184 87 181 62 q 189 136 186 111 l 189 136 l 189 140 q 187 152 189 146 q 182 164 184 157 l 182 164 q 182 167 182 166 q 181 169 181 168 l 181 169 q 188 183 181 176 l 188 183 q 205 192 194 188 q 223 195 215 195 l 223 195 q 231 193 227 195 l 231 193 q 233 189 233 191 l 233 189 q 228 172 233 182 l 228 172 q 222 157 223 159 q 221 140 221 154 l 221 140 q 231 119 221 132 q 254 94 241 106 q 278 72 267 81 q 290 63 288 63 l 290 63 q 309 108 296 79 q 337 169 322 136 q 367 233 352 202 q 392 284 382 263 l 392 284 q 399 303 397 295 q 401 315 401 311 l 401 315 q 400 322 401 319 q 398 325 399 324 l 398 325 q 418 363 400 337 q 460 416 435 388 q 511 462 485 443 q 557 481 537 481 l 557 481 q 576 478 563 481 q 601 466 589 474 q 615 444 613 458 l 615 444 l 615 440 q 614 438 615 438 l 614 438 q 610 440 613 438 q 603 442 607 442 l 603 442 q 553 420 580 442 q 498 360 526 397 q 442 277 469 322 q 391 187 415 232 q 349 105 367 142 q 319 44 330 67 l 319 44 q 387 10 351 20 q 460 -1 423 -1 l 460 -1 q 579 22 520 -1 q 690 82 638 45 q 776 161 741 118 l 776 161 q 840 264 818 211 q 861 366 861 317 l 861 366 q 833 467 861 422 q 748 538 805 511 q 601 564 690 564 l 601 564 q 469 551 537 564 q 338 513 401 537 q 225 457 275 489 q 145 386 174 424 q 115 307 115 348 l 115 307 q 131 270 115 282 q 167 251 147 257 q 198 239 187 245 l 198 239 q 206 232 206 236 l 206 232 q 195 226 206 226 l 195 226 q 163 232 183 226 q 123 250 143 238 q 91 280 103 262 q 81 321 78 297 l 81 321 q 80 328 81 323 q 79 337 79 333 l 79 337 q 107 424 79 385 q 184 493 135 463 q 294 543 232 523 q 423 573 355 563 q 557 583 491 583 l 557 583 q 678 574 616 583 q 791 539 739 564 q 875 467 843 513 q 906 348 906 421 l 906 348 q 871 200 906 268 q 775 82 835 132 q 642 3 715 31 q 492 -25 568 -25 l 492 -25 q 394 -12 441 -25 q 311 27 346 0 l 311 27 q 302 10 309 24 q 284 -21 294 -5 q 262 -50 273 -38 q 239 -63 250 -63 z m 235 -33 l 235 -33 q 252 -16 243 -33 q 268 19 261 0 q 277 41 275 37 l 277 41 q 248 70 266 50 q 216 102 229 90 l 216 102 q 217 57 216 92 q 223 -13 217 22 l 223 -13 q 235 -33 227 -33 z"},"E":{"ha":716,"x_min":24,"x_max":722,"o":"m 251 -62 l 251 -62 q 169 -55 209 -62 q 96 -31 129 -48 q 44 15 63 -15 q 24 90 24 44 l 24 90 q 48 175 24 140 q 111 231 72 209 q 196 264 150 252 q 285 282 241 276 q 361 288 328 287 l 361 288 q 307 376 331 323 q 283 479 283 429 l 283 479 q 287 514 283 497 q 300 546 291 531 l 300 546 q 332 577 310 564 q 380 596 354 589 q 428 603 406 603 l 428 603 q 489 584 465 603 q 534 544 513 564 l 534 544 q 547 533 539 539 q 563 523 554 526 l 563 523 q 573 522 567 522 q 582 518 578 521 l 582 518 q 597 497 590 511 q 607 472 603 483 l 607 472 q 613 430 613 456 l 613 430 q 609 393 613 410 q 595 376 604 376 l 595 376 q 582 385 590 376 l 582 385 q 565 423 570 399 q 550 465 560 446 l 550 465 q 524 513 538 491 q 490 551 510 535 l 490 551 q 467 569 482 560 q 431 578 451 578 l 431 578 q 406 573 416 578 l 406 573 q 357 527 371 559 q 342 457 342 495 l 342 457 q 357 366 342 411 q 391 296 372 320 l 391 296 q 416 289 396 290 q 443 285 435 287 l 443 285 q 466 278 459 284 q 473 265 473 272 l 473 265 q 460 246 473 254 l 460 246 q 443 241 455 241 l 443 241 q 405 248 426 241 q 370 257 384 254 l 370 257 q 301 247 340 256 q 222 222 262 238 q 147 181 181 205 q 91 127 112 157 q 68 60 69 96 l 68 60 q 99 -9 67 20 q 216 -38 131 -38 l 216 -38 q 302 -31 256 -38 q 393 -12 348 -24 q 475 12 437 -1 q 537 38 513 25 l 537 38 q 583 66 556 47 q 637 108 610 84 q 681 158 663 132 q 698 207 698 183 l 698 207 q 698 212 698 209 q 697 217 698 215 l 697 217 q 701 221 696 221 q 708 219 706 221 l 708 219 q 722 175 722 199 l 722 175 q 700 112 722 143 q 646 56 677 81 q 589 17 615 31 l 589 17 q 515 -15 558 -1 q 424 -40 471 -30 q 331 -56 376 -51 q 251 -62 286 -62 z"},"F":{"ha":529,"x_min":9,"x_max":741,"o":"m 90 294 l 90 294 q 56 311 75 298 q 23 343 37 323 q 9 386 9 362 l 9 386 q 13 408 9 397 l 13 408 q 14 415 13 409 q 15 425 14 421 l 15 425 q 66 508 26 475 q 164 558 106 540 q 285 580 222 576 l 285 580 q 310 582 298 581 q 333 582 322 582 l 333 582 q 448 574 396 582 q 551 556 500 565 q 662 545 602 547 l 662 545 q 688 569 675 561 q 707 577 700 576 l 707 577 q 715 578 710 578 l 715 578 q 733 573 725 578 q 741 560 741 568 l 741 560 q 733 545 741 553 l 733 545 q 713 529 726 538 q 686 506 700 520 l 686 506 q 654 468 668 489 q 639 425 639 446 l 639 425 q 647 398 639 409 l 647 398 q 648 395 648 397 l 648 395 q 640 388 648 388 l 640 388 q 628 395 634 388 l 628 395 q 619 438 619 406 l 619 438 q 623 474 619 455 q 635 509 627 493 l 635 509 q 642 521 639 515 q 649 531 645 526 l 649 531 q 506 537 576 528 q 365 545 436 545 l 365 545 q 273 537 325 545 q 171 512 221 529 q 85 464 121 494 q 39 388 49 433 l 39 388 q 38 381 38 384 q 37 375 37 378 l 37 375 q 49 343 37 356 q 75 322 60 330 q 98 306 90 313 l 98 306 q 105 298 105 302 l 105 298 q 101 293 105 294 q 90 294 96 292 z m 189 -27 l 189 -27 q 177 -25 186 -27 q 160 -20 168 -23 q 151 -13 152 -17 l 151 -13 q 162 44 149 7 q 196 126 174 81 q 240 214 217 171 l 240 214 q 199 211 213 211 l 199 211 q 183 218 191 211 q 174 237 174 225 l 174 237 q 185 255 174 247 q 210 266 196 262 q 229 270 223 270 l 229 270 q 247 261 242 270 q 257 251 252 251 l 257 251 l 261 251 q 288 301 276 279 q 306 336 299 323 l 306 336 q 314 364 314 353 l 314 364 q 314 372 314 369 q 312 376 313 374 l 312 376 q 327 408 314 388 q 359 448 340 428 q 400 482 378 468 q 441 495 421 495 l 441 495 q 462 491 447 495 q 489 476 477 486 q 499 450 501 466 l 499 450 q 487 455 492 455 l 487 455 q 428 426 460 455 q 363 351 396 397 q 300 252 330 304 l 300 252 q 334 256 317 254 q 368 261 351 258 l 368 261 q 443 271 404 266 q 516 276 481 276 l 516 276 q 529 275 522 276 q 536 269 536 273 l 536 269 q 532 264 536 267 q 515 255 527 260 l 515 255 q 459 242 499 249 q 371 229 419 235 q 279 217 322 222 l 279 217 q 234 129 254 170 q 204 62 214 87 l 204 62 q 198 44 200 52 q 196 31 196 36 l 196 31 q 206 17 196 17 l 206 17 q 221 23 213 17 q 236 36 229 28 l 236 36 q 256 61 247 49 q 272 70 265 72 l 272 70 q 273 67 273 69 l 273 67 q 267 53 273 61 q 260 44 261 45 l 260 44 q 241 17 252 34 q 216 -13 229 0 q 189 -27 203 -27 z"},"G":{"ha":798,"x_min":74,"x_max":807,"o":"m 282 -370 l 282 -370 q 225 -350 246 -370 q 203 -296 203 -330 l 203 -296 q 218 -235 203 -269 q 266 -165 233 -202 l 266 -165 q 418 -37 334 -87 q 597 44 501 13 l 597 44 q 623 122 611 82 q 647 201 635 161 l 647 201 q 539 110 598 155 q 414 34 480 64 q 277 3 348 3 l 277 3 q 179 23 225 3 q 103 82 132 42 q 74 185 74 122 l 74 185 q 212 464 74 340 l 212 464 q 387 570 292 537 q 586 602 481 602 l 586 602 q 621 600 598 602 q 667 590 643 597 q 709 569 691 582 q 730 534 727 555 l 730 534 q 731 527 731 530 q 731 521 731 524 l 731 521 q 727 503 731 509 q 718 497 723 497 l 718 497 q 708 513 708 497 l 708 513 q 691 555 706 540 q 653 574 675 569 q 607 579 630 579 l 607 579 q 519 564 570 579 q 410 521 467 548 q 298 456 353 493 q 197 374 242 418 q 125 280 152 329 q 98 181 98 231 l 98 181 q 144 82 98 112 q 259 51 189 51 l 259 51 q 403 75 327 51 l 403 75 q 501 118 460 92 q 579 177 542 143 q 658 250 616 210 l 658 250 q 705 309 676 296 q 759 322 734 322 l 759 322 q 784 320 773 322 q 799 318 795 318 l 799 318 q 807 312 807 317 l 807 312 q 795 305 807 303 l 795 305 q 741 277 764 307 q 704 204 718 246 l 704 204 q 679 132 691 169 q 653 58 667 95 l 653 58 q 729 72 704 72 l 729 72 q 745 69 741 72 l 745 69 q 749 61 749 66 l 749 61 q 742 55 749 52 l 742 55 q 729 57 736 57 l 729 57 q 696 53 716 57 q 660 41 676 48 q 640 24 644 34 l 640 24 q 549 -160 597 -85 q 453 -281 501 -235 q 360 -349 404 -328 q 282 -370 316 -370 z m 310 -344 l 310 -344 q 383 -315 347 -344 q 453 -242 419 -287 q 514 -146 486 -197 q 561 -49 541 -95 q 591 25 581 -3 l 591 25 q 439 -47 509 -2 q 314 -160 369 -92 l 314 -160 q 271 -229 284 -197 q 257 -286 257 -261 l 257 -286 q 272 -328 257 -313 q 310 -344 286 -344 z"},"H":{"ha":750,"x_min":-92,"x_max":862,"o":"m -3 -134 l -3 -134 q -58 -118 -34 -134 q -91 -72 -83 -103 l -91 -72 q -92 -67 -92 -70 q -92 -62 -92 -64 l -92 -62 q -85 -47 -92 -47 l -85 -47 q -74 -66 -79 -47 l -74 -66 q -44 -98 -65 -91 q -1 -106 -24 -106 l -1 -106 q 82 -78 42 -106 q 157 -6 122 -51 q 220 89 191 38 q 269 188 248 140 q 303 268 290 235 l 303 268 q 277 271 290 270 q 251 272 264 271 l 251 272 q 238 273 244 272 q 225 273 232 273 l 225 273 q 162 267 193 273 q 106 243 130 260 q 69 191 81 225 l 69 191 q 64 170 64 179 l 64 170 q 69 152 64 162 l 69 152 q 72 144 72 148 l 72 144 q 62 136 72 136 l 62 136 q 51 143 55 136 l 51 143 q 43 171 46 154 q 41 205 40 187 l 41 205 q 66 276 45 251 q 118 309 86 300 q 185 318 149 318 l 185 318 q 251 314 218 318 q 317 305 284 310 l 317 305 q 348 395 334 350 q 374 477 362 439 l 374 477 q 311 438 346 451 q 244 421 275 425 l 244 421 l 243 421 q 234 428 234 421 l 234 428 q 246 438 234 437 l 246 438 q 305 461 275 441 q 362 511 335 480 q 403 577 388 541 l 403 577 q 417 586 405 582 q 441 589 429 589 l 441 589 q 460 586 452 589 q 466 577 468 583 l 466 577 q 419 455 447 529 q 356 297 391 380 l 356 297 q 478 271 417 285 q 596 250 539 257 l 596 250 q 637 336 616 293 q 675 424 658 379 l 675 424 q 681 441 680 434 q 682 452 682 448 l 682 452 q 682 460 682 457 q 680 464 681 462 l 680 464 q 692 496 681 476 q 721 536 703 516 q 760 570 739 556 q 800 583 781 583 l 800 583 q 821 579 806 583 q 849 565 836 574 q 861 539 862 555 l 861 539 q 855 542 858 540 q 849 544 851 544 l 849 544 q 802 520 827 544 q 752 458 777 496 q 705 379 727 420 q 665 302 682 337 q 639 246 648 266 l 639 246 q 679 249 656 246 q 723 260 702 252 q 754 282 744 267 l 754 282 q 760 286 757 286 l 760 286 q 766 282 764 286 q 764 271 768 277 l 764 271 q 728 243 752 252 q 678 231 704 233 q 631 228 652 228 l 631 228 q 610 172 621 204 q 592 108 599 140 q 584 51 584 76 l 584 51 q 591 20 584 32 q 613 7 597 7 l 613 7 q 662 25 634 7 q 718 68 690 42 q 769 120 745 94 q 804 161 792 145 l 804 161 q 810 163 806 163 l 810 163 q 816 161 813 163 q 816 152 818 158 l 816 152 q 797 125 814 148 q 750 70 780 102 l 750 70 q 684 13 722 38 q 601 -12 645 -12 l 601 -12 q 554 9 567 -12 q 541 59 541 30 l 541 59 q 551 126 541 91 q 568 180 561 161 l 568 180 q 579 206 573 193 q 589 231 584 218 l 589 231 q 465 246 526 236 q 342 263 404 256 l 342 263 q 301 175 325 226 q 244 70 276 123 q 174 -30 212 16 q 91 -105 135 -77 q -3 -134 46 -134 z"},"I":{"ha":430,"x_min":8,"x_max":606,"o":"m 52 -9 l 52 -9 q 20 -5 31 -9 q 8 11 8 -2 l 8 11 q 9 22 8 16 q 13 34 10 27 l 13 34 q 30 51 18 45 q 52 56 42 56 l 52 56 q 70 51 62 56 l 70 51 q 103 34 84 41 q 143 26 122 26 l 143 26 q 192 38 167 26 q 239 80 217 49 l 239 80 q 295 178 269 119 q 343 301 321 236 q 381 428 364 366 q 409 534 398 489 l 409 534 q 308 517 357 530 q 228 479 259 503 q 196 418 196 454 l 196 418 q 207 386 196 398 q 233 366 218 373 q 256 354 247 359 l 256 354 q 263 347 263 350 l 263 347 q 254 345 263 341 l 254 345 q 224 359 242 348 q 191 387 205 369 q 175 428 176 405 l 175 428 q 174 434 175 430 q 172 441 172 438 l 172 441 q 192 505 170 479 q 250 548 213 531 q 331 572 286 564 q 420 579 375 579 l 420 579 l 424 589 q 436 598 426 594 q 455 601 445 601 l 455 601 q 472 598 465 601 q 478 590 478 595 l 478 590 q 473 577 478 585 l 473 577 q 534 567 506 574 q 580 550 561 560 l 580 550 q 597 538 587 547 q 606 522 606 528 l 606 522 q 598 517 606 517 l 598 517 q 588 518 594 517 q 574 522 582 519 l 574 522 q 525 532 555 529 q 459 535 494 535 l 459 535 q 424 426 444 489 q 378 296 403 363 q 322 167 352 228 q 259 63 292 105 l 259 63 q 240 43 249 53 q 221 25 230 33 l 221 25 q 322 26 276 24 q 398 29 367 28 l 398 29 l 404 29 q 415 24 415 29 l 415 24 q 409 13 415 19 q 399 5 403 7 l 399 5 q 365 1 394 3 q 292 -3 335 -2 q 201 -6 248 -5 q 114 -8 154 -8 q 52 -9 74 -9 z"},"J":{"ha":573,"x_min":34,"x_max":631,"o":"m 118 -105 l 118 -105 q 57 -83 80 -105 q 34 -26 34 -62 l 34 -26 q 49 33 34 0 q 95 103 63 66 l 95 103 q 247 231 163 182 q 427 311 330 280 l 427 311 q 448 374 436 335 q 475 457 459 413 q 510 535 491 500 l 510 535 q 415 532 465 537 q 321 513 365 526 q 249 476 276 499 q 221 418 221 452 l 221 418 q 233 386 221 398 q 259 366 244 373 q 281 354 273 359 l 281 354 q 288 347 288 350 l 288 347 q 278 345 288 342 l 278 345 q 221 380 245 352 q 197 441 197 407 l 197 441 q 216 505 195 479 q 273 548 237 531 q 354 572 309 564 q 445 579 399 579 l 445 579 q 493 578 470 579 q 537 572 516 576 l 537 572 q 561 593 548 585 q 588 601 574 601 l 588 601 q 599 594 599 601 l 599 594 q 588 584 599 586 l 588 584 q 560 567 574 582 l 560 567 q 585 559 573 563 q 606 550 596 555 l 606 550 q 622 537 612 547 q 631 522 631 527 l 631 522 q 624 517 631 517 l 624 517 q 614 518 620 517 q 599 522 608 519 l 599 522 q 540 533 575 530 l 540 533 q 518 468 529 505 q 498 394 507 431 q 478 325 488 357 l 478 325 q 558 339 529 339 l 558 339 q 574 336 570 339 l 574 336 q 578 328 578 333 l 578 328 q 571 322 578 319 l 571 322 q 557 324 565 324 l 557 324 q 524 320 543 324 q 490 309 505 316 q 470 291 474 301 l 470 291 q 384 106 430 182 q 289 -16 337 30 q 197 -84 241 -63 q 118 -105 153 -105 z m 138 -77 l 138 -77 q 212 -48 175 -77 q 281 25 248 -20 q 342 121 314 70 q 390 218 370 172 q 420 292 410 264 l 420 292 q 268 220 338 265 q 143 107 198 175 l 143 107 q 100 38 113 70 q 86 -19 86 5 l 86 -19 q 100 -61 86 -46 q 138 -77 114 -77 z"},"K":{"ha":558,"x_min":-226,"x_max":697,"o":"m -137 -134 l -137 -134 q -191 -118 -168 -134 q -225 -72 -215 -103 l -225 -72 q -225 -68 -225 -70 q -226 -64 -226 -66 l -226 -64 q -224 -52 -226 -57 q -219 -47 -222 -47 l -219 -47 q -208 -66 -212 -47 l -208 -66 q -178 -98 -198 -91 q -133 -106 -158 -106 l -133 -106 q -117 -105 -125 -106 q -102 -102 -109 -104 l -102 -102 q -17 -51 -57 -88 q 56 37 22 -15 q 119 148 90 88 q 170 268 147 207 q 211 383 193 328 q 240 477 228 437 l 240 477 q 177 438 212 451 q 112 421 142 425 l 112 421 l 111 421 q 100 429 100 421 l 100 429 q 112 438 100 437 l 112 438 q 171 461 141 441 q 228 511 201 480 q 270 577 254 541 l 270 577 q 284 586 272 582 q 307 589 295 589 l 307 589 q 327 586 318 589 q 333 577 335 583 l 333 577 q 256 380 293 480 q 171 183 218 280 l 171 183 q 213 233 191 208 q 261 285 234 257 l 261 285 l 261 298 q 261 312 261 306 q 262 324 261 318 l 262 324 q 268 336 264 329 q 276 343 272 343 l 276 343 q 283 330 280 343 l 283 330 q 284 323 283 326 q 285 316 284 320 l 285 316 l 287 318 q 321 349 296 327 q 381 401 346 371 q 453 463 415 431 q 525 523 491 494 q 584 570 559 551 q 617 593 609 589 l 617 593 q 645 604 632 601 q 666 607 657 607 l 666 607 q 690 601 682 607 q 697 585 697 594 l 697 585 q 674 555 697 567 l 674 555 q 603 518 644 541 q 517 466 562 494 q 429 407 472 437 q 350 347 386 376 q 292 294 314 318 l 292 294 q 321 203 307 241 q 356 131 335 165 q 410 53 376 96 l 410 53 q 457 10 433 26 q 500 -6 481 -6 l 500 -6 q 524 2 517 -6 q 530 20 530 9 l 530 20 q 523 49 530 34 q 509 74 516 64 l 509 74 q 504 85 504 82 l 504 85 q 509 89 504 89 l 509 89 q 528 80 519 89 l 528 80 q 542 58 533 75 q 550 28 550 41 l 550 28 q 536 -6 550 8 q 504 -26 522 -20 q 473 -33 486 -33 l 473 -33 q 391 -6 426 -33 q 331 65 355 21 q 290 160 306 108 q 265 260 274 211 l 265 260 q 180 159 222 210 q 112 73 138 108 l 112 73 q 67 5 93 41 q 10 -62 41 -31 q -58 -114 -22 -94 q -137 -134 -95 -134 z"},"L":{"ha":412,"x_min":2,"x_max":711,"o":"m 594 -164 l 594 -164 q 508 -152 552 -164 q 424 -125 463 -141 q 356 -100 385 -110 l 356 -100 q 257 -63 303 -81 q 192 -41 211 -45 l 192 -41 q 55 -16 95 -16 l 55 -16 q 42 -24 48 -21 q 29 -29 36 -28 l 29 -29 q 20 -30 26 -30 l 20 -30 q 2 -18 2 -30 l 2 -18 q 13 -4 2 -11 l 13 -4 q 32 1 21 0 q 53 2 42 1 l 53 2 q 97 53 76 22 q 126 100 117 84 l 126 100 q 142 128 134 114 q 157 154 149 141 l 157 154 q 124 147 141 150 q 91 143 107 143 l 91 143 q 39 155 62 143 q 15 199 15 167 l 15 199 q 34 238 15 220 q 72 256 52 256 l 72 256 q 84 246 84 256 l 84 246 q 75 240 84 240 l 75 240 q 55 227 64 240 q 46 200 46 214 l 46 200 q 53 181 46 190 q 75 169 59 171 l 75 169 q 107 166 90 166 l 107 166 q 166 174 136 166 l 166 174 q 193 230 180 202 q 217 284 205 257 l 217 284 q 268 391 242 339 q 319 484 294 443 q 364 545 344 525 l 364 545 q 441 596 402 581 q 510 611 479 611 l 510 611 q 522 611 516 611 q 533 609 528 610 l 533 609 q 585 584 570 603 q 600 537 600 564 l 600 537 q 597 508 600 523 l 597 508 q 545 390 584 445 q 449 291 505 335 q 330 215 393 246 q 206 170 266 184 l 206 170 q 179 127 193 148 q 147 84 164 105 l 147 84 q 118 46 137 69 q 79 2 99 22 l 79 2 q 110 0 93 1 q 145 -5 126 -2 l 145 -5 q 312 -43 228 -18 q 477 -90 395 -69 l 477 -90 q 543 -105 500 -96 q 622 -114 585 -114 l 622 -114 q 677 -101 658 -114 l 677 -101 q 692 -76 692 -92 l 692 -76 q 681 -56 692 -64 l 681 -56 q 675 -48 675 -51 l 675 -48 q 687 -45 675 -38 l 687 -45 q 706 -66 700 -54 q 711 -91 711 -78 l 711 -91 q 706 -118 711 -106 q 692 -136 700 -131 l 692 -136 q 594 -164 651 -164 z m 221 193 l 221 193 q 416 310 332 241 q 549 492 500 379 l 549 492 q 565 553 565 527 l 565 553 q 552 586 565 574 l 552 586 q 529 595 545 595 l 529 595 q 461 572 496 595 l 461 572 q 405 514 431 550 q 355 438 378 478 q 315 363 332 398 q 285 306 297 327 l 285 306 q 261 259 277 290 q 221 193 244 228 z"},"M":{"ha":1095,"x_min":-9,"x_max":1164,"o":"m 41 -77 l 41 -77 q 5 -63 19 -77 q -9 -24 -9 -49 l -9 -24 q -3 8 -9 -10 q 15 45 2 25 l 15 45 q 75 126 38 81 q 152 214 111 170 q 230 295 193 258 q 288 351 266 331 l 288 351 q 308 413 298 381 q 327 479 317 445 l 327 479 q 264 440 299 453 q 197 425 228 427 l 197 425 l 196 425 q 186 432 186 425 l 186 432 q 198 441 186 440 l 198 441 q 258 464 227 444 q 316 514 289 483 q 356 579 342 544 l 356 579 q 370 588 358 585 q 394 591 381 591 l 394 591 q 414 589 405 591 q 420 579 422 586 l 420 579 q 385 491 402 533 q 352 408 368 448 l 352 408 q 463 492 411 458 q 546 527 514 525 l 546 527 q 636 508 603 530 q 682 450 668 486 q 695 372 695 413 l 695 372 q 695 353 695 362 q 693 335 694 344 l 693 335 q 673 230 688 289 q 641 120 658 171 l 641 120 q 635 103 639 115 q 634 90 631 90 l 634 90 q 644 103 635 90 l 644 103 q 693 184 669 144 q 743 265 716 223 l 743 265 q 831 390 783 327 q 926 503 878 453 l 926 503 q 966 533 945 523 q 1004 543 986 543 l 1004 543 q 1038 530 1024 543 q 1051 488 1051 516 l 1051 488 q 1050 473 1051 481 q 1046 454 1048 464 l 1046 454 q 1018 366 1034 406 q 986 288 1002 326 q 958 207 970 249 q 940 114 945 165 l 940 114 q 939 97 939 105 q 938 82 938 89 l 938 82 q 948 33 938 48 q 974 17 958 17 l 974 17 q 1019 34 993 17 q 1070 75 1044 50 q 1117 123 1096 99 q 1148 160 1138 146 l 1148 160 q 1154 163 1150 163 l 1154 163 q 1161 160 1158 163 q 1161 152 1164 157 l 1161 152 q 1125 106 1148 132 q 1076 55 1101 79 q 1030 15 1050 30 l 1030 15 q 996 -3 1015 4 q 957 -10 976 -10 l 957 -10 q 917 1 935 -10 q 892 39 899 12 l 892 39 q 888 60 889 49 q 887 83 887 71 l 887 83 q 899 177 887 125 q 929 280 911 228 q 964 374 947 331 q 989 441 980 416 l 989 441 q 996 467 996 455 l 996 467 q 978 488 996 488 l 978 488 q 943 471 963 488 l 943 471 q 880 406 914 446 q 810 318 845 366 q 741 220 774 270 q 680 123 707 169 q 635 40 652 76 l 635 40 q 619 25 628 25 l 619 25 q 606 34 612 25 q 596 54 599 43 q 594 68 592 64 l 594 68 q 618 147 607 100 q 636 246 629 193 q 643 346 643 298 l 643 346 q 627 455 643 410 q 571 499 611 499 l 571 499 q 505 477 545 499 q 419 418 465 455 q 323 336 372 381 l 323 336 q 297 272 314 314 q 256 179 279 230 q 204 78 232 128 q 145 -11 175 27 l 145 -11 q 91 -61 118 -45 q 41 -77 64 -77 z m 46 -42 l 46 -42 q 100 -14 72 -42 q 155 56 127 13 q 205 144 182 98 q 245 229 228 190 q 268 287 261 268 l 268 287 q 209 228 240 260 q 149 162 178 195 q 95 99 119 128 q 57 51 71 70 l 57 51 q 34 12 41 29 q 26 -19 26 -6 l 26 -19 q 46 -42 26 -42 z"},"N":{"ha":784,"x_min":-172,"x_max":836,"o":"m -88 -129 l -88 -129 q -120 -125 -105 -129 l -120 -125 q -171 -69 -161 -111 l -171 -69 q -172 -60 -172 -66 l -172 -60 q -166 -46 -172 -46 l -166 -46 q -154 -64 -161 -46 l -154 -64 q -120 -98 -147 -92 l -120 -98 q -105 -101 -114 -100 q -88 -102 -96 -102 l -88 -102 q -17 -81 -51 -102 q 45 -27 16 -60 q 96 40 73 5 q 134 102 119 74 l 134 102 q 208 273 178 186 q 266 453 238 359 l 266 453 q 202 414 237 427 q 136 398 167 401 l 136 398 l 135 398 q 125 405 125 398 l 125 405 q 137 415 125 413 l 137 415 q 197 440 166 420 q 255 489 228 459 q 295 554 281 519 l 295 554 q 309 564 297 560 q 333 567 321 567 l 333 567 q 353 564 344 567 q 359 554 361 561 l 359 554 q 353 520 355 543 q 348 483 350 497 l 348 483 q 345 431 345 465 l 345 431 q 350 330 345 388 q 367 211 355 272 q 396 97 378 150 q 440 12 414 44 q 499 -21 465 -21 l 499 -21 q 565 13 534 -21 q 621 102 596 47 q 664 222 646 157 q 692 348 682 286 q 701 455 701 409 l 701 455 q 698 498 701 480 l 698 498 q 687 545 694 525 q 671 585 679 564 l 671 585 l 671 586 q 679 597 671 590 q 691 604 687 603 l 691 604 q 719 590 706 604 q 742 556 731 576 q 764 515 753 535 q 788 483 775 495 l 788 483 q 801 474 796 476 q 815 472 805 472 l 815 472 l 821 475 q 832 474 829 475 q 836 464 835 472 l 836 464 q 829 451 836 456 q 813 444 821 446 l 813 444 q 780 458 800 444 q 750 479 760 471 l 750 479 q 751 467 751 473 q 751 455 751 461 l 751 455 q 737 333 751 400 q 699 197 723 265 q 642 72 674 129 q 571 -20 609 15 q 492 -55 533 -55 l 492 -55 q 411 -26 444 -55 q 355 52 377 3 q 319 160 332 101 q 301 281 306 219 q 296 395 296 342 l 296 395 q 235 242 265 314 q 164 97 204 170 l 164 97 q 121 26 146 64 q 63 -48 95 -13 q -7 -106 31 -84 q -88 -129 -45 -129 z"},"O":{"ha":705,"x_min":46,"x_max":716,"o":"m 316 -72 l 316 -72 q 198 -37 246 -72 q 124 54 149 -2 q 99 173 99 109 l 99 173 q 125 300 99 237 q 205 411 151 363 q 341 478 259 459 l 341 478 q 363 482 352 480 q 387 483 374 483 l 387 483 q 430 477 409 483 q 466 455 451 471 l 466 455 q 477 441 477 445 q 475 437 477 437 l 475 437 q 468 440 472 437 q 458 444 463 443 l 458 444 q 418 451 440 451 l 418 451 q 407 451 412 451 q 396 449 401 450 l 396 449 q 291 401 337 435 q 212 320 244 367 q 162 222 179 273 q 145 122 145 170 l 145 122 q 162 36 145 75 q 215 -26 179 -3 q 305 -49 250 -49 l 305 -49 q 337 -47 320 -49 q 373 -41 354 -45 l 373 -41 q 455 -2 413 -32 q 534 71 496 27 q 602 166 572 114 q 649 272 631 217 q 666 379 666 327 l 666 379 q 611 529 666 479 q 461 578 555 578 l 461 578 q 338 556 399 578 q 232 501 276 533 l 232 501 q 151 428 187 470 q 91 338 114 385 q 63 242 68 290 l 63 242 q 58 231 63 231 l 58 231 q 50 241 54 231 q 46 260 46 250 l 46 260 q 70 367 46 316 q 133 461 93 418 q 224 536 173 504 q 331 585 275 567 q 439 602 386 602 l 439 602 q 582 573 519 603 q 680 486 644 543 q 716 348 716 429 l 716 348 q 687 200 716 269 q 609 77 657 131 q 502 -14 560 22 q 385 -63 443 -50 l 385 -63 q 350 -70 366 -68 q 316 -72 333 -72 z"},"P":{"ha":538,"x_min":32,"x_max":721,"o":"m 169 -27 l 169 -27 q 158 -25 167 -27 q 140 -20 148 -23 q 130 -13 131 -17 l 130 -13 q 140 41 128 6 q 173 120 152 76 q 215 205 193 163 l 215 205 q 207 206 211 205 q 197 206 202 206 l 197 206 q 185 217 185 208 l 185 217 q 196 222 185 222 l 196 222 q 210 222 204 222 q 223 221 216 221 l 223 221 q 260 290 243 259 q 284 336 277 320 l 284 336 q 292 355 290 347 q 294 366 294 362 l 294 366 q 292 376 294 372 l 292 376 q 307 408 294 388 q 338 448 319 428 q 379 482 357 468 q 420 495 401 495 l 420 495 q 439 492 426 495 q 463 481 451 488 q 478 461 475 474 l 478 461 q 479 455 479 459 l 479 455 q 476 452 479 452 l 476 452 q 471 454 474 452 q 465 455 467 455 l 465 455 q 418 435 443 455 q 365 380 392 414 q 312 305 338 346 q 261 221 285 263 l 261 221 q 367 234 311 223 q 478 262 423 244 q 580 306 533 280 q 659 365 627 332 l 659 365 q 694 441 694 402 l 694 441 q 672 495 694 470 q 603 533 650 520 l 603 533 q 540 545 575 541 q 463 549 504 549 l 463 549 q 332 538 399 549 q 205 505 264 527 q 106 448 146 482 q 58 367 66 414 l 58 367 q 67 329 55 343 q 97 308 79 315 q 124 294 114 300 l 124 294 q 131 284 131 288 l 131 284 q 118 279 131 277 l 118 279 q 84 293 104 282 q 48 324 63 304 q 32 369 32 343 l 32 369 q 33 377 32 373 q 34 385 33 381 l 34 385 q 34 392 34 386 q 33 401 33 397 l 33 401 q 64 460 39 432 q 120 509 88 487 q 178 543 151 530 l 178 543 q 291 580 225 566 q 429 593 357 593 l 429 593 q 517 587 473 593 q 601 568 560 581 l 601 568 q 690 510 658 549 q 718 427 721 470 l 718 427 q 690 353 715 386 q 625 296 664 320 q 538 254 585 271 q 442 225 490 236 l 442 225 q 345 210 396 215 q 252 204 293 205 l 252 204 q 210 123 228 161 q 182 62 191 85 l 182 62 q 174 31 174 40 l 174 31 q 185 17 174 17 l 185 17 q 215 36 199 17 l 215 36 q 236 61 226 49 q 252 70 245 72 l 252 70 q 253 67 253 69 l 253 67 q 246 54 253 62 q 238 44 239 45 l 238 44 q 220 17 231 34 q 196 -13 208 0 q 169 -27 183 -27 z"},"Q":{"ha":669,"x_min":45,"x_max":952,"o":"m 824 -214 l 824 -214 q 810 -215 817 -215 q 796 -215 803 -215 l 796 -215 q 681 -196 735 -215 q 579 -149 627 -178 q 487 -89 531 -121 q 403 -29 443 -57 l 403 -29 q 362 -37 382 -34 q 320 -40 342 -40 l 320 -40 q 179 -11 241 -40 q 81 73 117 18 q 45 205 45 128 l 45 205 q 75 348 45 281 q 153 467 104 414 q 260 555 201 520 q 376 603 318 590 l 376 603 q 410 609 393 607 q 441 611 426 611 l 441 611 q 544 584 503 611 q 605 510 585 556 q 625 408 625 464 l 625 408 q 610 308 625 359 q 564 209 595 256 l 564 209 q 448 91 514 130 q 317 41 382 52 l 317 41 q 331 36 322 39 q 344 30 340 32 l 344 30 q 371 15 357 23 q 397 -2 384 6 l 397 -2 q 526 72 468 20 q 626 194 584 124 q 685 339 667 264 l 685 339 q 699 441 699 393 l 699 441 q 677 539 699 498 q 602 584 654 580 l 602 584 q 586 592 586 585 l 586 592 q 593 599 586 596 q 607 601 599 602 l 607 601 q 709 536 679 590 q 733 407 738 481 l 733 407 q 705 279 730 344 q 639 153 680 213 q 543 48 597 93 q 426 -21 488 2 l 426 -21 q 532 -85 476 -53 q 647 -140 587 -118 q 772 -162 707 -162 l 772 -162 q 788 -162 780 -162 q 802 -161 795 -162 l 802 -161 q 857 -149 828 -159 q 906 -120 885 -139 q 926 -74 926 -101 l 926 -74 q 916 -38 926 -57 l 916 -38 q 913 -30 913 -33 l 913 -30 q 920 -23 913 -23 l 920 -23 q 935 -34 930 -23 l 935 -34 q 949 -75 946 -55 q 951 -114 952 -95 l 951 -114 q 917 -179 950 -149 q 824 -214 883 -209 z m 325 -16 l 325 -16 q 350 -13 338 -15 q 374 -9 362 -11 l 374 -9 q 297 32 334 19 l 297 32 q 265 23 286 29 q 231 18 244 17 l 231 18 q 212 28 218 20 q 206 43 206 35 l 206 43 q 213 59 206 51 q 233 68 220 67 l 233 68 q 263 65 241 68 q 307 61 285 61 l 307 61 q 420 121 369 79 q 509 219 471 163 q 567 334 546 274 q 587 445 587 393 l 587 445 q 555 549 587 507 q 452 590 523 590 l 452 590 q 423 588 439 590 q 390 582 407 586 l 390 582 q 308 544 349 572 q 228 473 266 515 q 160 381 189 431 q 113 279 130 331 q 95 176 95 226 l 95 176 q 150 33 95 82 q 296 -17 205 -17 l 296 -17 q 311 -17 304 -17 q 325 -16 318 -17 z"},"R":{"ha":538,"x_min":32,"x_max":855,"o":"m 717 -182 l 717 -182 q 697 -181 707 -182 q 676 -178 687 -180 l 676 -178 q 553 -133 608 -165 q 455 -58 498 -101 q 376 31 411 -16 q 311 122 340 78 q 257 198 282 165 l 257 198 q 253 201 255 203 q 250 199 250 199 l 250 199 q 210 121 228 157 q 182 62 191 84 l 182 62 q 174 31 174 40 l 174 31 q 185 17 174 17 l 185 17 q 215 36 199 17 l 215 36 q 236 61 226 49 q 252 70 245 72 l 252 70 q 253 67 253 69 l 253 67 q 246 54 253 62 q 238 44 239 45 l 238 44 q 220 17 231 34 q 196 -13 208 0 q 169 -27 183 -27 l 169 -27 q 158 -25 167 -27 q 140 -20 148 -23 q 130 -13 131 -17 l 130 -13 q 140 41 128 6 q 171 117 151 75 q 212 199 191 159 l 212 199 q 189 206 196 203 l 189 206 q 179 225 179 213 l 179 225 q 187 243 179 235 q 211 251 195 251 l 211 251 q 223 249 216 251 q 234 242 230 247 l 234 242 q 265 297 251 272 q 284 336 278 322 l 284 336 q 292 355 290 347 q 294 366 294 362 l 294 366 q 292 376 294 372 l 292 376 q 307 408 294 388 q 338 448 319 428 q 379 482 357 468 q 420 495 401 495 l 420 495 q 439 492 426 495 q 463 481 451 488 q 477 461 474 474 l 477 461 q 478 455 478 458 l 478 455 q 476 452 478 452 l 476 452 q 471 454 474 452 q 465 455 467 455 l 465 455 q 403 422 437 455 q 333 336 368 388 q 266 228 297 284 l 266 228 q 278 226 271 227 q 293 224 284 224 l 293 224 q 301 224 297 224 q 308 225 304 224 l 308 225 q 439 250 372 232 q 563 297 505 268 q 659 365 621 326 l 659 365 q 694 441 694 402 l 694 441 q 672 495 694 470 q 603 533 650 520 l 603 533 q 540 545 575 541 q 463 549 504 549 l 463 549 q 332 538 399 549 q 205 505 264 527 q 106 448 146 482 q 58 367 66 414 l 58 367 q 67 329 55 343 q 97 308 79 315 q 124 294 114 300 l 124 294 q 131 284 131 288 l 131 284 q 118 279 131 277 l 118 279 q 84 293 104 282 q 48 324 63 304 q 32 369 32 343 l 32 369 q 33 377 32 373 q 34 385 33 381 l 34 385 q 34 392 34 386 q 33 401 33 397 l 33 401 q 64 460 39 432 q 120 509 88 487 q 178 543 151 530 l 178 543 q 291 580 225 566 q 429 593 357 593 l 429 593 q 517 587 473 593 q 601 568 560 581 l 601 568 q 690 510 658 549 q 718 427 721 470 l 718 427 q 690 353 715 386 q 625 296 664 320 q 538 254 585 271 q 442 225 490 236 l 442 225 q 360 212 403 217 q 279 205 317 207 l 279 205 q 365 99 322 152 q 456 -2 407 45 q 562 -82 504 -49 q 693 -130 620 -116 l 693 -130 q 724 -133 708 -133 l 724 -133 q 776 -125 750 -133 q 818 -100 801 -117 q 835 -55 835 -83 l 835 -55 q 835 -45 835 -50 q 833 -35 834 -40 l 833 -35 q 833 -32 833 -33 q 832 -30 832 -31 l 832 -30 q 839 -21 832 -21 l 839 -21 q 852 -36 849 -21 l 852 -36 q 855 -64 855 -51 l 855 -64 q 853 -92 855 -79 q 846 -116 850 -105 l 846 -116 q 801 -163 837 -144 q 717 -182 764 -182 z"},"S":{"ha":591,"x_min":13,"x_max":644,"o":"m 163 -34 l 163 -34 q 53 -10 93 -34 q 13 56 13 13 l 13 56 q 39 138 13 100 q 107 203 65 175 q 194 246 148 230 q 278 261 239 261 l 278 261 q 298 255 298 261 l 298 255 q 277 246 298 246 l 277 246 q 197 228 240 246 q 119 178 153 210 l 119 178 q 79 130 92 154 q 65 84 65 105 l 65 84 q 94 33 65 53 q 181 12 123 12 l 181 12 q 250 18 215 12 q 314 30 285 23 q 357 41 342 37 l 357 41 q 432 70 394 53 q 499 109 469 87 q 543 152 529 130 l 543 152 q 555 175 551 164 q 558 196 558 186 l 558 196 q 533 244 558 224 q 469 279 508 263 q 386 310 430 295 q 303 340 342 324 q 239 377 264 356 q 214 426 214 397 l 214 426 q 239 486 214 459 q 302 533 263 512 q 384 567 340 553 q 468 587 428 580 q 534 594 508 594 l 534 594 q 644 539 644 594 l 644 539 q 626 488 644 517 l 626 488 q 603 460 618 473 q 580 446 588 446 l 580 446 q 574 453 574 446 l 574 453 q 585 466 574 456 q 607 489 596 475 q 618 517 618 503 l 618 517 q 595 549 618 538 q 533 560 571 560 l 533 560 q 481 555 515 560 q 407 537 447 549 q 330 505 367 525 l 330 505 q 261 440 261 467 l 261 440 q 300 402 261 420 l 300 402 q 367 375 329 389 q 444 345 405 361 q 517 309 483 329 q 571 265 550 289 q 591 209 591 240 l 591 209 q 545 123 591 167 l 545 123 q 462 60 509 89 q 362 10 414 31 q 258 -22 309 -11 q 163 -34 207 -34 z"},"T":{"ha":336,"x_min":9,"x_max":766,"o":"m 90 294 l 90 294 q 56 311 75 298 q 23 343 37 323 q 9 386 9 362 l 9 386 q 13 408 9 397 l 13 408 q 14 415 13 409 q 15 425 14 421 l 15 425 q 66 508 26 475 q 164 558 106 540 q 285 580 222 576 l 285 580 q 309 581 297 581 q 333 581 321 581 l 333 581 q 472 572 403 581 q 598 555 541 563 q 687 545 654 546 l 687 545 q 728 577 715 574 l 728 577 q 737 578 731 578 l 737 578 q 757 573 748 578 q 766 557 766 567 l 766 557 q 758 540 766 548 l 758 540 q 736 523 751 533 q 707 498 721 513 l 707 498 q 671 453 687 478 q 655 405 655 428 l 655 405 q 663 376 655 388 l 663 376 q 665 372 665 374 l 665 372 q 657 364 665 364 l 657 364 q 642 372 650 364 l 642 372 q 634 415 634 382 l 634 415 q 638 458 634 435 q 652 500 642 481 l 652 500 q 664 517 656 507 q 675 531 671 526 l 675 531 q 529 539 603 532 q 383 546 455 546 l 383 546 q 307 542 349 546 q 221 527 265 537 q 139 499 177 517 q 74 453 101 480 q 39 388 47 426 l 39 388 q 38 381 38 384 q 37 375 37 378 l 37 375 q 49 343 37 356 q 75 322 60 330 q 98 306 90 313 l 98 306 q 105 298 105 302 l 105 298 q 101 293 105 294 q 90 294 96 292 z m 189 -27 l 189 -27 q 177 -25 186 -27 q 160 -20 168 -23 q 151 -13 152 -17 l 151 -13 q 161 42 148 6 q 194 120 173 77 q 237 206 214 163 q 278 284 259 249 q 306 336 297 318 l 306 336 q 314 364 314 353 l 314 364 q 314 372 314 369 q 312 376 313 374 l 312 376 q 327 408 314 388 q 359 448 340 428 q 400 482 378 468 q 441 495 421 495 l 441 495 q 462 491 447 495 q 489 476 477 486 q 499 450 501 466 l 499 450 q 487 455 492 455 l 487 455 q 437 433 464 455 q 382 374 410 411 q 326 293 353 337 q 274 205 298 249 q 232 123 250 160 q 204 62 214 85 l 204 62 q 198 44 200 52 q 196 31 196 36 l 196 31 q 206 17 196 17 l 206 17 q 221 23 213 17 q 236 36 229 28 l 236 36 q 256 61 247 49 q 272 70 265 72 l 272 70 q 273 67 273 69 l 273 67 q 267 53 273 61 q 260 44 261 45 l 260 44 q 241 17 252 34 q 216 -13 229 0 q 189 -27 203 -27 z"},"U":{"ha":526,"x_min":11,"x_max":672,"o":"m 452 -188 l 452 -188 q 398 -160 416 -188 q 374 -91 380 -132 l 374 -91 q 371 -59 372 -76 q 369 -25 369 -43 l 369 -25 q 373 51 369 10 q 384 134 377 91 l 384 134 q 302 62 346 97 q 210 3 257 26 q 114 -20 162 -20 l 114 -20 q 70 -5 89 -20 q 45 45 50 10 l 45 45 q 44 59 44 52 q 43 72 43 65 l 43 72 q 58 164 43 116 q 96 261 73 212 q 142 356 118 309 q 181 443 165 403 l 181 443 q 183 449 183 446 q 183 452 183 451 l 183 452 q 180 456 183 456 l 180 456 q 158 443 174 456 l 158 443 q 88 395 124 415 q 21 373 52 375 l 21 373 l 20 373 q 11 379 11 373 l 11 379 q 24 390 11 388 l 24 390 q 66 406 41 392 q 117 439 90 419 q 169 481 144 459 q 211 520 193 502 q 233 548 228 538 l 233 548 q 248 557 235 553 q 272 561 260 561 l 272 561 q 291 558 283 561 q 297 548 299 555 l 297 548 q 271 505 290 537 q 226 427 251 472 q 175 329 200 381 q 130 227 149 277 q 102 135 110 176 l 102 135 q 99 111 100 122 q 98 88 98 99 l 98 88 q 112 32 98 48 q 147 15 126 15 l 147 15 q 205 30 173 15 q 269 68 236 44 q 332 118 301 91 q 388 170 363 145 l 388 170 q 413 297 398 235 q 444 411 427 359 q 476 495 460 463 l 476 495 q 533 578 500 547 q 612 606 566 608 l 612 606 q 659 585 646 603 q 672 543 672 567 l 672 543 q 666 505 672 525 l 666 505 q 626 417 653 461 q 564 329 598 372 q 496 246 530 286 q 435 171 462 206 l 435 171 q 426 110 430 144 q 419 42 421 75 q 416 -15 416 9 l 416 -15 q 449 -153 416 -112 l 449 -153 q 477 -168 461 -168 l 477 -168 q 498 -158 489 -168 l 498 -158 q 510 -142 502 -150 l 510 -142 q 520 -136 516 -136 l 520 -136 q 524 -149 527 -136 l 524 -149 q 520 -158 523 -153 q 511 -169 516 -164 l 511 -169 q 486 -183 504 -178 q 452 -188 468 -188 z m 450 234 l 450 234 q 524 317 486 268 q 592 420 561 366 q 635 522 622 474 l 635 522 q 638 538 637 530 q 639 551 639 545 l 639 551 q 621 580 639 580 l 621 580 q 584 557 606 580 l 584 557 q 500 414 529 496 q 450 234 470 331 z"},"V":{"ha":613,"x_min":18,"x_max":912,"o":"m 211 -58 l 211 -58 q 137 -37 158 -58 q 116 16 116 -17 l 116 16 q 130 86 116 47 l 130 86 q 179 209 151 145 q 231 333 206 272 l 231 333 q 275 440 253 385 q 305 535 297 495 l 305 535 q 216 528 261 535 q 131 507 170 521 q 69 471 92 493 q 45 418 45 449 l 45 418 q 57 386 45 398 q 82 366 68 373 q 104 354 96 359 l 104 354 q 112 346 112 349 l 112 346 q 108 344 112 344 l 108 344 q 80 355 100 344 q 42 384 59 365 q 24 428 25 403 l 24 428 q 22 434 24 430 q 20 441 20 438 l 20 441 q 40 505 18 479 q 98 548 61 531 q 180 572 135 564 q 271 579 225 579 l 271 579 q 289 579 280 579 q 307 578 298 579 l 307 578 q 302 590 306 585 l 302 590 q 300 596 300 594 l 300 596 q 309 604 300 604 l 309 604 q 328 589 319 604 l 328 589 q 333 575 332 582 l 333 575 q 428 550 390 569 l 428 550 q 446 538 436 547 q 456 522 456 528 l 456 522 q 448 517 456 517 l 448 517 q 438 518 444 517 q 424 522 432 519 l 424 522 q 335 535 388 533 l 335 535 q 318 434 333 492 q 279 321 303 375 l 279 321 q 220 174 248 249 q 185 34 191 98 l 185 34 q 184 26 184 30 q 184 18 184 22 l 184 18 q 195 -21 184 -9 q 224 -33 206 -33 l 224 -33 q 291 -11 252 -33 q 367 38 330 10 l 367 38 q 484 148 435 89 q 577 278 532 207 l 577 278 q 656 408 618 343 q 742 531 693 473 l 742 531 q 775 564 754 547 q 822 593 796 581 q 872 605 847 605 l 872 605 q 889 603 880 605 q 905 596 898 601 l 905 596 q 910 589 912 592 q 905 585 907 585 l 905 585 q 899 586 902 585 q 894 586 896 586 l 894 586 q 842 557 872 586 q 773 480 811 528 q 691 371 735 431 q 597 248 646 311 l 597 248 q 492 121 546 182 q 381 15 437 59 l 381 15 q 296 -38 338 -19 q 211 -58 253 -58 z"},"W":{"ha":975,"x_min":13,"x_max":987,"o":"m 93 -79 l 93 -79 q 32 -63 50 -79 q 13 -23 13 -48 l 13 -23 q 23 22 13 -3 q 49 74 33 47 l 49 74 q 129 200 84 134 q 216 329 173 265 l 216 329 q 265 401 239 364 q 313 472 290 437 q 348 534 335 506 l 348 534 q 328 535 338 535 q 307 535 318 535 l 307 535 q 218 529 264 535 q 133 508 172 522 q 69 472 93 494 q 45 417 45 449 l 45 417 q 57 385 45 397 q 83 366 68 373 q 104 354 97 359 l 104 354 q 112 346 112 349 l 112 346 q 108 344 112 344 l 108 344 q 80 355 100 344 q 42 384 59 365 q 24 428 25 403 l 24 428 q 22 434 24 430 q 20 441 20 438 l 20 441 q 39 505 18 479 q 97 548 60 531 q 178 572 133 564 q 268 579 223 579 l 268 579 q 363 571 318 579 l 363 571 q 365 578 364 575 q 365 584 365 581 l 365 584 q 363 593 365 589 l 363 593 q 362 598 362 595 l 362 598 q 371 606 362 606 l 371 606 q 382 603 376 606 q 390 590 387 599 l 390 590 q 391 583 391 588 l 391 583 q 388 566 391 575 l 388 566 q 410 558 400 562 q 428 550 419 554 l 428 550 q 446 538 436 547 q 456 522 456 528 l 456 522 q 448 517 456 517 l 448 517 q 438 518 444 517 q 424 522 432 519 l 424 522 q 403 528 414 525 q 380 532 392 530 l 380 532 q 332 431 364 489 q 263 317 300 372 l 263 317 q 197 215 230 267 q 136 113 163 163 q 92 18 108 63 l 92 18 q 86 -5 88 5 q 84 -24 84 -16 l 84 -24 q 115 -56 84 -56 l 115 -56 q 186 -35 142 -56 q 276 17 230 -14 l 276 17 q 434 148 359 75 q 566 303 508 221 l 566 303 q 565 329 565 315 q 564 357 564 342 l 564 357 q 566 406 564 381 q 571 450 567 431 l 571 450 q 581 472 572 458 q 601 496 589 485 q 621 507 612 507 l 621 507 q 636 495 630 507 q 641 453 641 483 l 641 453 q 636 386 641 424 q 612 310 630 347 l 612 310 q 624 198 611 252 q 660 100 636 143 q 713 33 683 57 q 777 9 743 8 l 777 9 q 846 37 815 10 q 899 108 876 63 q 933 205 921 152 q 945 311 945 258 l 945 311 q 932 412 945 364 q 889 490 918 459 l 889 490 q 807 524 857 524 l 807 524 q 799 524 803 524 q 789 523 794 524 l 789 523 q 745 505 764 520 l 745 505 q 738 503 741 503 l 738 503 q 726 513 726 503 l 726 513 q 730 520 726 517 l 730 520 q 838 558 785 558 l 838 558 q 909 537 877 558 l 909 537 q 969 460 950 511 q 987 348 987 409 l 987 348 q 969 219 987 285 q 919 96 951 152 q 843 6 887 40 q 748 -29 799 -29 l 748 -29 q 674 -7 709 -29 q 612 53 638 14 q 573 143 586 92 q 563 252 559 194 l 563 252 q 487 167 531 212 q 394 79 442 121 q 301 4 345 36 l 301 4 q 199 -55 250 -32 q 93 -79 147 -79 z"},"X":{"ha":679,"x_min":-210,"x_max":749,"o":"m -76 -144 l -76 -144 q -172 -115 -128 -144 l -172 -115 q -210 -38 -210 -88 l -210 -38 q -206 -18 -210 -27 q -196 -9 -202 -9 l -196 -9 q -191 -16 -193 -9 q -189 -40 -189 -23 l -189 -40 q -163 -86 -189 -68 l -163 -86 q -129 -100 -147 -96 q -93 -104 -112 -104 l -93 -104 q 2 -83 -49 -104 q 105 -29 52 -63 q 207 45 157 4 q 300 125 257 85 q 373 198 342 165 l 373 198 q 349 310 357 252 q 341 424 341 367 l 341 424 q 343 474 341 449 q 346 522 344 498 l 346 522 q 348 533 347 527 q 351 544 349 539 l 351 544 q 329 546 340 545 q 304 546 317 546 l 304 546 q 214 540 260 546 q 129 519 168 533 q 66 483 90 505 q 42 428 42 460 l 42 428 q 56 396 42 408 q 86 378 69 384 q 109 365 102 371 l 109 365 q 114 360 114 363 l 114 360 q 110 355 114 357 q 100 354 105 353 l 100 354 q 70 369 88 358 q 36 398 51 380 q 21 438 21 416 l 21 438 q 19 444 21 439 q 17 450 17 448 l 17 450 q 37 515 15 488 q 95 558 58 541 q 176 582 131 574 q 266 589 221 589 l 266 589 q 367 580 322 589 l 367 580 q 388 594 376 592 l 388 594 l 389 594 q 401 587 397 594 q 404 571 404 580 l 404 571 q 416 567 410 569 q 426 562 421 564 l 426 562 q 443 548 433 558 q 452 531 452 537 l 452 531 q 445 527 452 527 l 445 527 q 419 533 439 527 l 419 533 q 410 536 415 534 q 399 538 405 537 l 399 538 q 396 500 397 519 q 395 460 395 480 l 395 460 q 421 254 395 355 l 421 254 q 518 375 472 314 q 605 493 564 436 q 679 593 645 549 l 679 593 q 690 598 683 598 l 690 598 q 702 587 702 598 l 702 587 q 699 578 702 583 l 699 578 q 575 399 644 493 q 432 220 506 305 l 432 220 q 451 169 438 201 q 481 105 463 137 q 521 50 499 72 q 566 27 542 27 l 566 27 q 608 42 584 27 q 657 79 632 57 q 701 123 681 101 q 731 160 721 145 l 731 160 q 738 163 734 163 l 738 163 q 744 152 749 163 l 744 152 q 719 117 738 141 q 674 66 699 92 q 625 23 648 40 l 625 23 q 540 -13 577 -13 l 540 -13 q 488 6 512 -13 q 443 54 463 25 q 408 113 422 82 q 385 165 393 143 l 385 165 q 313 90 354 131 q 224 8 272 49 q 125 -68 176 -34 q 23 -123 74 -102 q -76 -144 -28 -144 z"},"Y":{"ha":526,"x_min":8,"x_max":703,"o":"m 87 -370 l 87 -370 q 30 -349 51 -370 q 8 -295 8 -329 l 8 -295 q 23 -235 8 -269 q 70 -165 37 -202 l 70 -165 q 222 -37 138 -87 q 402 44 305 13 l 402 44 q 419 100 408 61 q 444 191 430 139 q 473 297 458 243 l 473 297 q 389 181 434 237 q 297 79 344 124 q 203 7 249 33 q 114 -20 156 -20 l 114 -20 q 70 -5 89 -20 q 45 45 50 10 l 45 45 q 44 59 44 52 q 43 72 43 65 l 43 72 q 58 164 43 116 q 96 261 73 212 q 142 356 118 309 q 181 443 165 403 l 181 443 q 183 449 183 446 q 183 452 183 451 l 183 452 q 180 456 183 456 l 180 456 q 158 443 174 456 l 158 443 q 88 395 124 415 q 21 373 52 375 l 21 373 l 20 373 q 11 379 11 373 l 11 379 q 24 390 11 388 l 24 390 q 66 406 41 392 q 117 439 90 419 q 169 481 144 459 q 211 520 193 502 q 233 548 228 538 l 233 548 q 248 557 235 553 q 272 561 260 561 l 272 561 q 291 558 283 561 q 297 548 299 555 l 297 548 q 271 505 290 537 q 226 426 251 472 q 175 329 200 380 q 130 227 149 277 q 102 135 110 176 l 102 135 q 99 111 100 122 q 98 88 98 99 l 98 88 q 112 32 98 48 q 147 15 126 15 l 147 15 q 221 43 181 15 q 304 117 261 70 q 386 221 346 163 q 462 339 426 278 q 523 455 497 400 l 523 455 q 537 487 531 472 q 549 513 542 501 l 549 513 q 556 527 553 521 q 563 534 559 532 l 563 534 q 597 562 575 554 q 641 569 619 569 l 641 569 q 674 567 660 569 q 693 563 687 564 l 693 563 q 703 554 703 562 l 703 554 q 699 547 703 550 q 688 543 695 543 l 688 543 q 625 518 649 547 q 578 432 600 489 l 578 432 q 558 374 570 413 q 530 287 545 334 q 501 192 515 239 q 475 109 486 145 q 458 58 463 73 l 458 58 q 535 72 508 72 l 535 72 q 550 69 546 72 l 550 69 q 553 62 553 66 l 553 62 q 551 56 553 58 q 545 55 549 53 l 545 55 q 533 57 541 57 l 533 57 q 501 53 520 57 q 465 41 481 48 q 444 24 448 34 l 444 24 q 322 -207 387 -121 q 195 -332 256 -294 q 87 -370 133 -370 z m 115 -344 l 115 -344 q 188 -315 152 -344 q 257 -242 224 -287 q 318 -146 290 -197 q 366 -49 345 -95 q 396 25 386 -3 l 396 25 q 244 -47 314 -2 q 119 -160 174 -92 l 119 -160 q 75 -229 88 -197 q 62 -286 62 -262 l 62 -286 q 77 -328 62 -313 q 115 -344 91 -344 z"},"Z":{"ha":523,"x_min":11,"x_max":737,"o":"m 606 -199 l 606 -199 q 590 -200 598 -200 q 574 -201 582 -201 l 574 -201 q 465 -183 518 -201 q 363 -138 412 -166 q 268 -81 314 -111 q 178 -24 221 -51 q 94 16 135 2 l 94 16 q 58 3 76 7 q 33 1 39 -1 l 33 1 q 11 31 11 9 l 11 31 q 32 60 11 50 l 32 60 q 56 58 38 62 q 94 51 73 53 l 94 51 q 195 121 137 68 q 314 240 252 174 l 314 240 q 263 238 286 239 q 229 238 240 237 l 229 238 q 213 246 222 238 q 204 266 204 254 l 204 266 q 215 282 204 275 q 238 293 225 289 q 257 296 250 296 l 257 296 q 275 287 270 296 q 287 276 280 277 l 287 276 q 297 275 292 275 q 307 275 302 275 l 307 275 q 327 276 317 275 q 347 276 337 276 l 347 276 q 438 374 393 326 q 523 458 483 421 q 593 510 563 494 l 593 510 q 474 538 543 526 q 338 550 404 550 l 338 550 q 286 548 311 550 q 238 539 260 545 l 238 539 q 180 509 204 531 q 155 464 155 486 l 155 464 q 158 450 155 456 l 158 450 q 162 437 162 443 l 162 437 q 158 431 162 431 l 158 431 q 145 441 154 431 l 145 441 q 131 479 131 458 l 131 479 q 145 520 131 500 q 179 556 158 540 q 221 578 199 571 l 221 578 q 282 592 250 588 q 348 596 314 596 l 348 596 q 493 582 419 596 q 628 552 567 568 l 628 552 q 651 571 635 560 q 684 589 666 581 q 716 597 702 597 l 716 597 q 737 574 737 597 l 737 574 q 722 535 737 552 q 684 509 706 518 q 641 499 661 499 l 641 499 q 628 500 632 499 l 628 500 q 557 446 594 481 q 482 368 520 411 q 403 279 443 324 l 403 279 q 474 286 438 283 q 544 287 510 289 l 544 287 q 559 284 552 286 q 566 278 566 282 l 566 278 q 562 273 566 276 q 544 266 557 270 l 544 266 q 505 259 532 263 q 443 252 478 255 q 372 244 408 248 l 372 244 q 267 139 322 190 q 147 49 212 87 l 147 49 l 146 49 q 138 34 138 42 l 138 34 q 149 17 138 24 l 149 17 q 278 -56 214 -17 q 409 -122 342 -95 q 545 -149 475 -149 l 545 -149 q 562 -148 553 -149 q 578 -147 570 -148 l 578 -147 q 620 -135 598 -144 q 656 -110 641 -126 q 670 -71 670 -94 l 670 -71 q 654 -23 670 -49 l 654 -23 q 651 -14 651 -17 l 651 -14 q 657 -8 651 -8 l 657 -8 q 670 -18 666 -8 l 670 -18 q 689 -60 683 -40 q 698 -98 695 -81 l 698 -98 q 699 -104 698 -101 q 699 -110 699 -107 l 699 -110 q 676 -168 699 -142 q 606 -199 653 -194 z"},"a":{"ha":453,"x_min":12,"x_max":525,"o":"m 319 -10 l 319 -10 q 288 -2 302 -10 q 266 28 273 6 l 266 28 q 263 53 263 37 l 263 53 q 269 102 263 75 q 282 148 275 129 l 282 148 q 264 131 277 146 q 231 94 250 115 q 188 51 211 72 q 139 15 164 29 q 90 1 114 1 l 90 1 q 56 11 74 1 q 27 35 38 20 l 27 35 q 12 76 12 55 l 12 76 q 31 132 12 103 q 79 189 49 161 q 142 239 108 216 q 206 277 175 261 q 255 297 236 292 l 255 297 q 300 303 275 303 l 300 303 q 329 300 314 303 q 354 288 344 296 l 354 288 q 367 277 362 284 q 372 262 372 270 l 372 262 q 365 257 372 254 l 365 257 q 344 273 357 269 q 316 276 330 276 l 316 276 q 228 250 276 276 q 142 189 180 224 l 142 189 q 110 155 130 179 q 72 101 89 130 q 55 48 55 72 l 55 48 q 62 25 55 35 l 62 25 q 75 18 66 18 l 75 18 q 113 33 89 18 q 161 70 136 48 q 207 111 186 91 q 236 140 227 131 l 236 140 q 256 161 241 145 q 287 194 270 176 q 318 225 304 212 q 335 238 331 238 l 335 238 q 352 236 340 238 q 371 228 363 233 q 374 215 379 223 l 374 215 q 333 136 348 177 q 314 70 317 94 l 314 70 q 313 63 313 66 q 313 55 313 59 l 313 55 q 341 15 313 15 l 341 15 q 381 33 356 15 q 432 76 406 51 q 480 125 458 101 q 509 160 501 148 l 509 160 q 515 163 512 163 l 515 163 q 522 160 519 163 q 522 151 525 156 l 522 151 q 490 108 511 133 q 443 58 469 83 q 392 15 417 33 l 392 15 q 359 -2 379 5 q 319 -10 339 -10 z"},"&":{"ha":697,"x_min":39,"x_max":651,"o":"m 254 -32 l 254 -32 q 240 -33 247 -33 q 226 -33 233 -33 l 226 -33 q 122 -12 163 -33 q 60 41 80 8 q 39 109 39 73 l 39 109 q 70 197 39 154 q 158 262 100 240 l 158 262 q 224 278 192 275 q 282 282 255 281 q 327 284 309 282 l 327 284 q 278 336 303 305 q 236 402 253 366 q 219 473 219 438 l 219 473 q 223 504 219 489 q 237 532 227 519 l 237 532 q 272 558 248 547 q 324 574 295 568 q 376 580 352 580 l 376 580 q 438 565 407 580 q 487 527 468 550 l 487 527 q 505 545 495 537 q 526 554 515 553 l 526 554 q 532 555 528 555 l 532 555 q 546 552 540 555 q 551 542 551 548 l 551 542 q 545 532 551 537 l 545 532 q 531 519 541 526 q 509 501 520 512 l 509 501 q 484 472 495 488 q 473 438 473 455 l 473 438 q 479 419 473 428 l 479 419 q 480 416 480 418 l 480 416 q 474 411 480 411 l 474 411 q 464 416 469 411 l 464 416 q 459 446 459 423 l 459 446 q 462 476 459 460 q 472 504 465 491 l 472 504 q 474 507 473 505 q 475 509 474 508 l 475 509 q 431 542 459 527 q 372 557 402 557 l 372 557 q 350 554 361 557 l 350 554 q 303 522 316 547 q 290 465 290 497 l 290 465 q 299 404 290 436 q 320 345 307 372 q 346 301 333 318 l 346 301 q 358 278 358 285 l 358 278 q 340 267 358 270 l 340 267 q 251 246 294 262 q 181 217 207 230 l 181 217 q 112 161 135 194 q 89 96 89 128 l 89 96 q 127 21 89 53 q 235 -12 165 -12 l 235 -12 q 249 -12 242 -12 q 263 -11 256 -12 l 263 -11 q 380 18 324 -5 q 478 85 435 41 q 541 196 521 128 l 541 196 q 548 225 546 210 q 549 253 549 240 l 549 253 q 548 278 549 267 q 543 294 546 289 l 543 294 q 483 261 514 277 q 425 227 451 244 l 425 227 q 388 198 411 219 q 346 151 364 176 q 328 105 328 126 l 328 105 q 340 81 328 90 l 340 81 q 348 69 348 75 l 348 69 q 343 66 348 66 l 343 66 q 335 68 339 66 l 335 68 q 316 89 322 72 q 309 128 309 106 l 309 128 q 321 183 309 159 l 321 183 q 353 220 332 204 q 402 252 373 235 l 402 252 q 479 293 438 273 q 556 332 520 313 q 615 369 592 350 q 638 406 638 387 l 638 406 q 638 412 638 409 q 636 418 638 415 l 636 418 q 636 420 636 419 q 635 421 635 420 l 635 421 q 638 425 635 425 l 638 425 q 647 418 643 425 l 647 418 q 651 398 651 409 l 651 398 q 624 347 651 371 q 557 300 597 323 l 557 300 q 581 263 568 288 q 594 212 594 238 l 594 212 q 594 205 594 208 q 593 197 594 201 l 593 197 q 548 98 583 139 q 462 29 512 56 q 358 -13 412 1 q 254 -32 303 -28 z"},"^":{"ha":584,"x_min":167,"x_max":460,"o":"m 444 520 l 444 520 q 426 528 437 520 l 426 528 q 400 551 416 536 q 368 582 384 566 q 341 604 351 597 l 341 604 q 268 570 303 586 q 194 534 233 554 l 194 534 q 174 527 180 527 l 174 527 q 169 534 167 527 q 178 550 171 541 q 192 564 185 559 l 192 564 q 226 585 203 570 q 275 615 248 599 q 325 643 301 631 q 359 654 348 654 l 359 654 q 394 630 376 650 q 427 588 411 610 q 455 554 443 566 l 455 554 q 460 541 460 549 l 460 541 q 456 527 460 534 q 444 520 452 520 z"},"~":{"ha":408,"x_min":133,"x_max":403,"o":"m 148 351 l 148 351 q 143 349 147 349 l 143 349 q 136 351 139 349 q 134 354 133 353 l 134 354 q 176 406 154 382 q 225 430 197 430 l 225 430 q 243 427 234 430 l 243 427 q 281 409 258 421 q 324 390 304 396 l 324 390 q 336 388 330 389 q 346 386 342 386 l 346 386 q 385 419 372 386 l 385 419 q 392 422 387 422 l 392 422 q 400 420 396 422 q 402 416 403 418 l 402 416 q 371 373 392 391 q 326 354 350 354 l 326 354 q 310 357 318 354 l 310 357 q 261 376 285 365 q 212 387 237 387 l 212 387 q 176 377 192 387 q 148 351 159 367 z"},"*":{"ha":642,"x_min":107,"x_max":525,"o":"m 373 187 l 373 187 q 361 192 369 186 q 342 215 353 197 l 342 215 q 333 233 340 219 q 317 263 325 246 l 317 263 q 303 291 310 277 q 290 314 295 305 l 290 314 q 242 250 259 274 q 216 217 224 226 l 216 217 q 185 195 200 195 l 185 195 q 170 204 174 195 q 167 221 166 213 l 167 221 q 177 235 169 225 q 197 260 184 244 l 197 260 q 226 292 210 273 q 260 333 241 310 l 260 333 q 184 332 218 332 q 140 330 150 332 l 140 330 q 116 334 124 329 q 107 344 108 339 l 107 344 l 107 345 q 112 357 107 351 q 124 365 117 362 l 124 365 q 174 371 132 369 q 268 372 216 372 l 268 372 q 248 409 259 388 q 227 448 236 429 q 214 477 218 467 l 214 477 q 211 492 211 485 l 211 492 q 217 510 211 503 q 230 516 223 516 l 230 516 q 256 494 246 516 l 256 494 q 273 457 259 486 q 300 392 287 427 l 300 392 q 344 443 322 418 q 380 486 365 467 q 399 509 395 504 l 399 509 q 410 521 405 517 q 419 527 415 525 l 419 527 q 425 528 421 528 l 425 528 q 433 523 432 528 l 433 523 q 434 517 434 521 l 434 517 q 424 489 434 502 l 424 489 q 401 459 412 473 q 376 424 390 444 q 335 372 361 404 l 335 372 q 366 371 350 371 q 396 371 381 371 l 396 371 q 448 372 425 371 q 478 372 471 372 l 478 372 q 515 368 504 371 q 525 359 525 364 l 525 359 q 511 347 525 353 q 481 340 496 341 l 481 340 q 454 339 477 340 q 398 337 431 338 q 325 335 364 336 l 325 335 q 358 258 341 291 q 379 219 375 225 l 379 219 q 382 203 382 210 l 382 203 q 373 187 382 189 z"},"@":{"ha":767,"x_min":28,"x_max":751,"o":"m 320 -158 l 320 -158 q 156 -125 221 -158 q 60 -40 91 -93 q 28 72 28 12 l 28 72 q 54 200 28 138 q 124 315 79 262 q 228 407 169 367 q 353 469 286 447 q 490 491 420 491 l 490 491 q 617 467 564 491 q 699 402 670 443 q 727 305 727 360 l 727 305 q 714 234 727 271 q 682 161 701 196 q 642 99 662 126 l 642 99 q 582 35 616 62 q 501 7 547 7 l 501 7 q 467 16 482 7 q 444 47 452 24 l 444 47 q 441 71 441 56 l 441 71 q 448 125 441 94 q 462 176 454 155 l 462 176 q 442 157 456 173 q 407 117 428 140 q 362 72 386 94 q 311 35 337 50 q 260 20 285 20 l 260 20 q 225 30 244 20 q 194 55 206 39 l 194 55 q 179 98 179 75 l 179 98 q 199 158 179 127 q 249 217 218 188 q 314 271 279 246 q 381 312 349 295 q 432 333 412 328 l 432 333 q 455 337 443 335 q 478 339 466 339 l 478 339 q 509 335 491 339 q 541 322 527 331 q 555 295 555 312 l 555 295 q 548 290 555 286 l 548 290 q 526 308 540 304 q 497 311 511 311 l 497 311 q 406 284 456 311 q 316 220 356 256 l 316 220 q 292 194 307 211 q 261 154 276 176 q 236 110 246 132 q 225 69 225 88 l 225 69 q 232 45 225 55 l 232 45 q 246 39 237 39 l 246 39 q 285 55 261 39 q 334 92 308 70 q 382 135 360 114 q 413 165 403 155 l 413 165 q 434 188 419 171 q 467 224 449 205 q 498 257 484 243 q 515 271 512 271 l 515 271 q 532 269 520 271 q 553 261 544 266 q 557 245 562 255 l 557 245 q 522 181 536 214 q 500 121 507 148 q 493 79 493 93 l 493 79 q 508 40 493 50 l 508 40 q 522 34 516 34 l 522 34 q 557 47 538 34 q 591 76 575 60 q 613 100 607 92 l 613 100 q 669 195 647 141 q 690 300 690 248 l 690 300 q 634 415 690 371 q 483 458 577 458 l 483 458 q 338 427 409 458 q 208 340 266 395 q 114 214 149 285 q 79 63 79 142 l 79 63 q 104 -38 79 8 q 181 -112 128 -84 q 321 -140 234 -140 l 321 -140 q 405 -128 360 -140 q 495 -97 450 -117 q 579 -51 540 -77 q 644 3 618 -25 l 644 3 q 707 88 688 49 q 725 154 725 127 l 725 154 q 713 188 725 176 l 713 188 q 709 194 709 191 l 709 194 q 716 199 709 199 l 716 199 q 724 196 720 199 l 724 196 q 751 125 751 171 l 751 125 q 735 56 751 94 q 681 -20 719 18 l 681 -20 q 608 -76 651 -51 q 514 -119 564 -101 q 413 -148 463 -138 q 320 -158 363 -158 z"},"b":{"ha":382,"x_min":11,"x_max":434,"o":"m 80 -28 l 80 -28 q 57 -26 70 -28 q 33 -21 43 -24 q 23 -16 23 -18 l 23 -16 q 33 -12 23 -14 q 66 -11 42 -11 l 66 -11 q 121 2 91 -11 q 177 31 150 14 q 223 61 204 48 l 223 61 q 285 118 253 83 q 330 193 317 152 l 330 193 q 335 212 332 200 q 338 236 338 224 l 338 236 q 334 255 338 247 q 319 262 330 262 l 319 262 q 278 251 299 262 q 237 226 256 240 q 203 198 217 211 l 203 198 q 174 171 191 189 q 141 131 157 153 q 114 88 124 109 q 107 49 104 66 l 107 49 q 105 33 109 45 q 89 21 100 21 l 89 21 q 68 38 80 21 l 68 38 q 61 71 61 46 l 61 71 q 66 121 61 94 q 75 165 71 148 l 75 165 q 58 140 65 153 q 27 100 50 126 l 27 100 q 18 96 23 96 l 18 96 q 11 104 11 96 l 11 104 q 15 114 11 110 l 15 114 q 76 193 51 160 q 106 239 100 225 l 106 239 q 128 293 114 260 q 158 364 141 326 q 193 437 175 401 q 228 498 211 472 l 228 498 q 263 545 243 521 q 308 584 283 568 q 362 599 333 599 l 362 599 q 386 596 373 599 l 386 596 q 391 594 387 596 l 391 594 l 401 591 q 404 590 403 590 q 406 589 405 590 l 406 589 q 434 542 434 572 l 434 542 q 418 488 434 518 l 418 488 q 373 424 404 460 q 301 350 341 387 q 218 278 260 312 q 140 219 175 243 l 140 219 q 122 175 130 200 q 109 125 114 150 l 109 125 q 154 182 129 154 q 198 225 179 209 l 198 225 q 259 267 229 251 q 313 282 288 282 l 313 282 q 343 274 325 282 q 375 254 360 266 q 391 227 389 241 l 391 227 q 392 222 391 224 q 392 216 392 219 l 392 216 q 377 161 392 189 q 340 108 362 133 q 293 63 317 83 q 249 30 268 43 l 249 30 q 169 -11 211 5 q 80 -28 126 -28 z m 151 259 l 151 259 q 243 330 197 289 q 329 416 289 371 q 392 500 368 461 l 392 500 q 407 547 407 524 l 407 547 q 403 566 407 558 q 388 573 398 573 l 388 573 q 372 569 381 573 q 351 555 362 565 l 351 555 q 273 475 309 523 q 207 372 237 427 q 151 259 177 316 z"},"\\":{"ha":319,"x_min":41,"x_max":303,"o":"m 293 -12 l 293 -12 q 278 -6 286 -12 q 267 7 269 -1 l 267 7 q 230 125 253 62 q 180 252 207 188 q 127 372 153 315 q 78 473 100 429 q 42 538 55 516 l 42 538 q 41 541 41 539 l 41 541 q 47 549 41 546 q 59 551 52 551 l 59 551 q 84 541 78 551 l 84 541 q 106 501 91 532 q 141 425 121 470 q 183 328 160 380 q 226 223 205 275 q 265 124 247 170 q 293 44 282 77 q 303 -1 303 11 l 303 -1 l 303 -3 q 293 -12 303 -12 z"},"|":{"ha":257,"x_min":129,"x_max":163,"o":"m 163 -49 l 129 -49 l 129 583 l 163 583 l 163 -49 z"},"{":{"ha":413,"x_min":7,"x_max":441,"o":"m 145 -138 l 145 -138 q 84 -129 116 -138 q 29 -97 51 -120 q 7 -34 7 -75 l 7 -34 q 23 35 7 1 q 60 100 39 69 q 96 156 80 130 q 112 199 112 181 l 112 199 q 93 231 112 219 q 33 250 73 243 l 33 250 q 23 262 23 253 l 23 262 q 35 273 23 273 l 35 273 q 101 278 68 273 q 158 300 134 282 q 186 358 182 318 l 186 358 q 191 411 188 381 q 204 470 194 440 q 235 526 213 500 q 296 567 256 551 q 398 582 335 582 l 398 582 l 417 582 q 434 581 427 582 q 441 571 441 579 l 441 571 q 431 561 441 561 l 431 561 q 369 559 396 561 q 318 544 341 557 q 273 497 295 530 l 273 497 q 240 427 248 460 q 219 352 232 393 l 219 352 q 191 297 206 315 q 153 272 175 279 q 95 257 130 264 l 95 257 q 135 223 123 243 q 147 183 147 203 l 147 183 q 134 135 147 159 q 102 86 120 111 q 70 32 83 60 q 56 -27 56 4 l 56 -27 q 89 -95 56 -73 q 164 -118 122 -118 l 164 -118 l 176 -115 l 181 -115 q 187 -123 187 -115 l 187 -123 q 174 -135 187 -133 q 145 -138 161 -138 z"},"}":{"ha":465,"x_min":68,"x_max":500,"o":"m 109 -137 l 109 -137 q 100 -137 105 -137 q 89 -138 94 -138 l 89 -138 q 75 -135 81 -138 q 68 -126 68 -133 l 68 -126 q 78 -116 68 -116 l 78 -116 q 140 -114 113 -116 q 190 -98 167 -112 q 234 -52 213 -85 l 234 -52 q 268 19 259 -14 q 290 92 277 52 l 290 92 q 318 147 302 129 q 356 173 333 165 q 413 187 379 181 l 413 187 q 373 221 385 201 q 361 261 361 241 l 361 261 q 375 309 361 285 q 407 359 388 333 q 439 412 425 384 q 452 471 452 440 l 452 471 q 435 524 452 504 q 395 553 418 544 q 350 562 371 562 l 350 562 q 339 561 344 562 q 327 560 333 560 l 327 560 q 321 567 321 560 l 321 567 q 334 581 321 578 q 363 583 347 583 l 363 583 q 424 574 392 583 q 478 543 456 565 q 500 478 500 520 l 500 478 q 485 410 500 443 q 449 345 469 376 q 413 289 428 314 q 397 244 397 263 l 397 244 q 416 214 397 225 q 476 194 435 202 l 476 194 q 486 182 486 191 l 486 182 q 473 171 486 171 l 473 171 q 407 167 440 171 q 350 144 373 162 q 322 86 326 126 l 322 86 q 316 34 319 63 q 304 -26 313 4 q 273 -81 294 -56 q 212 -121 251 -106 q 109 -137 172 -137 z"},"[":{"ha":447,"x_min":-18,"x_max":562,"o":"m 49 -130 l 9 -130 q -12 -125 -7 -130 q -18 -114 -18 -121 l -18 -114 q 0 -64 -18 -102 q 47 29 17 -26 q 113 147 76 83 q 188 276 149 211 q 261 398 226 340 q 324 499 296 456 q 364 562 351 542 l 364 562 q 382 578 375 574 q 404 582 388 582 l 404 582 l 549 582 q 560 580 557 582 q 562 575 562 577 l 562 575 q 551 561 562 570 q 532 551 540 552 l 532 551 q 466 546 494 547 q 409 545 437 545 l 409 545 q 348 457 384 511 q 269 334 311 402 q 183 192 226 266 q 100 45 139 118 q 33 -94 61 -29 l 33 -94 l 164 -94 q 176 -100 176 -94 l 176 -100 q 155 -119 176 -113 q 105 -128 134 -126 q 49 -130 75 -130 l 49 -130 z"},"]":{"ha":447,"x_min":-32,"x_max":549,"o":"m 126 -127 l -18 -127 q -32 -121 -32 -127 l -32 -121 q -20 -107 -32 -116 q -1 -97 -9 -98 l -1 -97 q 66 -92 37 -93 q 121 -91 94 -91 l 121 -91 q 183 -2 146 -57 q 262 121 219 53 q 349 262 305 188 q 431 410 392 336 q 498 548 470 483 l 498 548 l 367 548 q 354 554 354 548 l 354 554 q 375 574 354 568 q 426 582 396 580 q 482 584 456 584 l 482 584 l 522 584 q 544 580 538 584 q 549 568 549 576 l 549 568 q 532 518 549 556 q 485 426 514 480 q 419 308 455 371 q 344 180 382 244 q 270 57 305 115 q 207 -44 234 -1 q 166 -107 180 -87 l 166 -107 q 150 -123 156 -120 q 126 -127 143 -127 l 126 -127 z"},"c":{"ha":312,"x_min":20,"x_max":382,"o":"m 158 -11 l 158 -11 q 122 -14 140 -14 l 122 -14 q 49 7 78 -14 q 20 68 20 28 l 20 68 q 34 126 20 92 l 34 126 q 71 179 44 149 q 134 238 98 209 q 207 285 170 266 q 274 303 244 303 l 274 303 q 294 300 285 303 l 294 300 q 313 289 305 296 q 321 268 321 282 l 321 268 q 321 262 321 265 q 319 255 321 259 l 319 255 q 315 242 319 252 q 305 225 310 232 q 295 221 299 217 l 295 221 q 291 229 291 224 l 291 229 q 294 241 291 234 q 296 252 296 247 l 296 252 q 293 266 296 259 q 281 272 289 272 l 281 272 q 232 255 262 272 q 171 210 202 238 q 114 147 139 181 q 79 79 89 113 l 79 79 q 75 64 76 71 q 74 49 74 56 l 74 49 q 89 18 74 27 q 124 8 103 8 l 124 8 q 171 15 147 8 l 171 15 q 282 70 239 35 q 367 160 324 105 l 367 160 q 374 164 371 165 q 379 163 377 163 l 379 163 q 382 157 382 162 l 382 157 q 381 152 382 155 q 379 147 380 149 l 379 147 q 284 46 336 89 q 158 -11 232 2 z"},":":{"ha":161,"x_min":94,"x_max":206,"o":"m 178 159 l 178 159 q 157 161 168 159 q 145 175 145 163 l 145 175 q 156 189 145 178 q 180 210 167 200 q 199 220 193 220 l 199 220 q 206 212 206 220 q 206 196 206 204 l 206 196 q 201 183 206 192 q 190 167 196 174 q 178 159 183 159 z m 127 0 l 127 0 q 106 2 117 0 q 94 16 94 4 l 94 16 q 105 32 94 21 q 129 52 116 42 q 148 61 142 61 l 148 61 q 155 54 155 61 q 154 39 154 47 l 154 39 q 149 26 154 35 q 138 8 144 16 q 127 0 132 0 z"},",":{"ha":178,"x_min":34,"x_max":151,"o":"m 45 -119 l 45 -119 q 39 -121 42 -121 l 39 -121 q 35 -117 35 -121 q 34 -113 34 -114 l 34 -113 q 41 -103 34 -112 q 56 -85 47 -95 l 56 -85 q 82 -49 70 -68 q 101 -9 94 -31 l 101 -9 q 105 8 105 0 l 105 8 q 101 23 105 18 q 96 35 96 27 l 96 35 q 97 44 96 41 l 97 44 q 111 53 100 53 q 125 53 121 53 l 125 53 q 144 42 137 53 q 151 21 151 30 l 151 21 q 138 -9 151 11 q 107 -52 125 -29 q 71 -94 88 -75 q 45 -119 54 -113 z"},"d":{"ha":374,"x_min":12,"x_max":685,"o":"m 308 -109 l 308 -109 q 271 -84 282 -105 q 260 -32 260 -63 l 260 -32 q 271 48 260 5 q 295 129 281 91 q 317 187 309 167 l 317 187 q 265 128 294 160 q 203 67 235 96 q 142 20 171 38 q 90 1 112 1 l 90 1 q 56 11 74 1 q 27 35 38 20 l 27 35 q 12 76 12 55 l 12 76 q 31 132 12 103 q 79 189 49 161 q 142 239 108 216 q 206 277 175 261 q 255 297 236 292 l 255 297 q 276 301 265 299 q 299 303 287 303 l 299 303 q 329 300 314 303 q 354 288 344 296 l 354 288 l 358 285 q 411 397 382 340 q 473 500 440 453 q 543 576 506 547 q 620 604 580 604 l 620 604 q 630 604 625 604 q 639 602 635 603 l 639 602 q 675 585 664 597 q 685 555 685 572 l 685 555 q 681 530 685 543 q 668 503 676 516 l 668 503 q 611 426 646 464 q 533 353 575 388 q 450 284 491 317 q 374 222 408 251 l 374 222 q 344 140 359 187 q 319 60 329 93 l 319 60 q 310 15 313 36 q 306 -24 306 -6 l 306 -24 q 318 -78 306 -57 l 318 -78 q 343 -94 328 -94 l 343 -94 q 363 -86 354 -94 l 363 -86 q 371 -81 367 -84 q 379 -75 374 -78 l 379 -75 q 389 -72 385 -72 l 389 -72 q 390 -83 396 -72 l 390 -83 q 383 -90 387 -86 q 374 -100 379 -95 l 374 -100 q 353 -108 367 -105 q 325 -111 339 -111 l 325 -111 q 317 -110 321 -111 q 308 -109 312 -110 z m 404 279 l 404 279 q 491 347 444 306 q 579 434 538 387 q 642 522 620 480 l 642 522 q 655 560 655 546 l 655 560 q 640 577 655 577 l 640 577 q 603 561 626 577 l 603 561 q 490 438 536 509 q 404 279 444 366 z m 62 25 l 62 25 q 75 19 67 19 l 75 19 q 111 32 90 19 q 138 52 131 45 l 138 52 q 241 141 189 93 q 337 236 292 188 l 337 236 q 344 254 341 245 q 351 270 347 262 l 351 270 q 316 276 336 276 l 316 276 q 228 250 276 276 q 142 189 180 224 l 142 189 q 110 155 130 179 q 72 101 89 130 q 55 48 55 72 l 55 48 q 62 25 55 35 z"},"$":{"ha":436,"x_min":61,"x_max":442,"o":"m 78 -12 l 78 -12 q 68 -5 68 -12 l 68 -5 q 77 21 68 1 q 100 72 85 41 l 100 72 q 73 87 85 79 q 61 105 61 95 l 61 105 q 63 110 61 107 q 68 112 65 113 l 68 112 q 114 98 84 104 l 114 98 q 141 152 126 123 q 172 210 155 180 l 172 210 q 119 276 144 239 q 94 354 94 312 l 94 354 q 114 424 94 394 q 166 475 133 454 q 236 505 198 495 q 309 515 273 515 l 309 515 q 327 515 318 515 q 342 513 335 514 l 342 513 l 346 513 q 358 532 352 524 q 365 541 363 539 l 365 541 q 378 548 370 546 q 392 550 385 550 l 392 550 q 407 547 401 550 q 407 538 412 544 l 407 538 q 397 523 403 531 q 384 504 390 515 l 384 504 q 424 481 406 496 q 442 439 442 465 l 442 439 q 425 386 442 411 q 384 342 408 360 q 335 313 359 323 l 335 313 q 330 312 332 312 q 326 311 328 311 l 326 311 q 322 314 322 311 l 322 314 q 329 325 322 318 l 329 325 q 359 354 341 336 q 392 392 377 371 l 392 392 q 409 421 403 407 q 415 444 415 434 l 415 444 q 368 482 415 473 l 368 482 q 291 358 335 431 q 203 206 246 285 l 203 206 q 250 151 229 178 q 270 101 270 124 l 270 101 q 254 73 270 83 q 216 58 238 62 q 174 54 194 54 l 174 54 q 163 54 168 54 q 153 55 158 54 l 153 55 q 144 57 149 56 q 130 61 138 58 l 130 61 q 106 7 117 33 l 106 7 q 94 -6 102 -1 q 78 -12 85 -12 z m 182 228 l 182 228 q 260 368 220 299 q 328 484 300 437 l 328 484 q 260 469 295 482 q 193 435 224 456 q 143 387 162 414 q 123 326 123 359 l 123 326 q 141 279 123 304 q 182 228 158 254 z m 145 95 l 145 95 q 205 101 177 93 q 233 135 232 109 l 233 135 q 222 158 233 144 q 192 188 210 171 l 192 188 q 168 142 180 166 q 145 95 156 118 z"},"e":{"ha":319,"x_min":20,"x_max":386,"o":"m 131 -15 l 131 -15 q 53 6 86 -15 q 20 70 20 27 l 20 70 q 34 126 20 93 l 34 126 q 71 179 44 149 q 134 238 98 209 q 207 285 170 266 q 274 303 244 303 l 274 303 q 294 300 285 303 l 294 300 q 318 281 311 294 q 324 254 324 268 l 324 254 q 320 229 324 241 q 310 208 316 217 l 310 208 q 259 160 292 181 q 191 127 225 139 q 134 113 156 115 l 134 113 l 132 113 q 119 121 119 113 l 119 121 q 127 126 119 126 l 127 126 q 188 149 151 128 q 252 191 224 169 l 252 191 q 281 219 264 201 q 297 254 297 237 l 297 254 q 280 272 297 272 l 280 272 q 262 268 271 272 q 246 262 252 264 l 246 262 q 182 219 217 248 q 119 153 147 189 q 79 79 90 116 l 79 79 q 75 64 76 71 q 74 49 74 56 l 74 49 q 90 15 74 25 q 127 5 105 5 l 127 5 q 195 20 160 5 q 263 57 230 34 q 324 107 296 80 q 370 158 351 133 l 370 158 q 377 163 373 162 q 382 161 381 163 l 382 161 q 386 156 386 160 q 384 147 386 151 l 384 147 q 317 71 356 108 q 230 10 277 34 q 131 -15 182 -15 z"},"=":{"ha":538,"x_min":135,"x_max":538,"o":"m 182 239 l 182 239 q 162 250 162 239 l 162 250 q 173 267 162 258 q 193 276 183 276 l 193 276 q 228 276 200 276 q 293 277 255 276 q 371 277 331 277 q 441 277 410 277 q 484 277 472 277 l 484 277 q 524 274 509 277 q 538 265 538 270 l 538 265 q 527 256 538 259 q 502 251 515 252 q 484 249 489 250 l 484 249 q 437 247 470 248 q 362 244 403 245 q 282 241 321 242 q 215 240 243 240 q 182 239 187 239 z m 158 96 l 158 96 q 135 107 135 95 l 135 107 q 146 125 135 115 q 166 134 156 134 l 166 134 l 457 134 q 496 131 481 134 q 510 121 510 127 l 510 121 q 499 112 511 115 q 475 108 487 108 q 458 106 462 107 l 458 106 q 413 104 444 105 q 342 101 381 102 q 264 99 302 100 q 197 98 226 98 q 158 96 168 97 z"},"!":{"ha":163,"x_min":94,"x_max":369,"o":"m 159 143 l 159 143 q 147 154 147 143 l 147 154 q 148 158 147 156 q 149 163 148 160 l 149 163 q 187 262 166 209 q 229 368 207 315 q 270 466 251 421 l 270 466 q 302 542 288 509 q 322 582 315 574 l 322 582 q 330 585 325 585 l 330 585 q 355 573 341 585 q 369 549 369 561 l 369 549 q 364 522 369 539 q 346 483 358 504 l 346 483 q 335 471 341 474 q 323 457 328 467 l 323 457 q 248 310 286 385 q 183 157 209 234 l 183 157 q 174 148 182 152 q 159 143 166 143 z m 127 0 l 127 0 q 106 2 117 0 q 94 16 94 4 l 94 16 q 105 32 94 21 q 129 52 116 42 q 148 61 142 61 l 148 61 q 155 54 155 61 q 154 39 154 47 l 154 39 q 149 26 154 35 q 138 8 144 16 q 127 0 132 0 z"},"f":{"ha":285,"x_min":-80,"x_max":478,"o":"m -71 -340 l -71 -340 q -80 -334 -80 -340 l -80 -334 q -78 -325 -80 -329 l -78 -325 q -60 -284 -74 -318 q -25 -199 -46 -251 q 19 -88 -5 -148 q 66 30 43 -29 q 108 136 89 88 l 108 136 q 76 132 90 133 q 56 131 62 131 l 56 131 q 38 137 47 131 q 29 153 29 143 l 29 153 q 41 169 29 162 q 68 179 53 175 q 89 182 82 182 l 89 182 q 106 174 100 182 q 118 166 111 166 l 118 166 l 120 166 q 139 213 131 194 q 148 239 146 231 l 148 239 q 170 293 156 260 q 201 364 184 326 q 237 437 218 401 q 271 498 255 472 l 271 498 q 307 545 286 521 q 352 584 327 568 q 404 599 376 599 l 404 599 q 427 597 416 599 q 448 589 438 594 l 448 589 q 478 540 478 572 l 478 540 q 474 512 478 527 q 461 479 469 496 l 461 479 q 419 410 448 450 q 351 327 389 370 q 271 244 312 284 q 192 174 230 204 l 192 174 q 245 179 218 176 q 299 181 272 181 l 299 181 q 314 180 306 181 q 321 175 321 178 l 321 175 q 317 171 321 173 q 299 164 312 168 l 299 164 q 267 158 291 162 q 212 149 243 153 q 149 141 180 145 l 149 141 q 117 56 135 105 q 80 -44 98 6 q 46 -135 61 -95 l 46 -135 q 31 -186 34 -170 q 28 -210 28 -202 l 28 -210 l 28 -217 q 28 -225 28 -221 q 24 -236 27 -229 l 24 -236 q 0 -298 6 -282 q -17 -322 -6 -315 l -17 -322 q -42 -333 -25 -326 q -71 -340 -59 -340 z m 163 172 l 163 172 q 239 240 200 200 q 315 326 278 280 q 383 415 352 371 q 433 493 413 459 l 433 493 q 450 546 450 521 l 450 546 q 431 573 450 573 l 431 573 q 393 555 415 573 l 393 555 q 348 509 374 541 q 296 437 321 476 q 251 362 270 397 l 251 362 q 211 282 229 320 q 182 218 193 243 q 169 187 171 192 l 169 187 q 163 172 166 181 z"},"g":{"ha":415,"x_min":-58,"x_max":495,"o":"m -2 -367 l -2 -367 q -23 -361 -14 -364 l -23 -361 q -50 -338 -42 -351 q -58 -312 -58 -326 l -58 -312 q -42 -262 -58 -289 q -2 -208 -27 -236 l -2 -208 q 62 -147 23 -178 q 142 -87 100 -116 q 216 -38 184 -59 l 216 -38 q 278 97 251 33 q 316 194 305 160 l 316 194 q 271 143 295 171 q 236 101 247 114 l 236 101 q 193 58 217 81 q 143 18 169 34 q 91 1 116 1 l 91 1 q 57 11 75 1 q 28 35 39 20 l 28 35 q 13 76 13 55 l 13 76 q 32 132 13 103 q 80 189 50 161 q 143 239 109 216 q 207 277 176 261 q 256 297 237 292 l 256 297 q 300 303 274 303 l 300 303 q 329 299 312 303 q 360 287 346 295 q 373 262 373 278 l 373 262 q 365 257 373 254 l 365 257 q 345 273 358 269 q 317 276 331 276 l 317 276 q 230 250 278 276 q 143 189 181 224 l 143 189 q 110 155 131 179 q 73 101 89 130 q 56 48 56 72 l 56 48 q 63 25 56 35 l 63 25 q 75 20 66 20 l 75 20 q 122 37 94 20 q 180 80 149 54 q 241 136 211 106 q 293 190 270 165 q 327 228 316 215 l 327 228 q 334 235 329 233 q 345 237 339 237 l 345 237 q 379 229 361 237 q 393 214 396 220 l 393 214 q 349 119 374 173 q 295 6 323 65 l 295 6 q 338 37 308 13 q 404 95 368 61 q 471 164 440 128 l 471 164 q 489 177 483 177 l 489 177 q 492 167 495 177 q 476 140 489 156 l 476 140 q 432 95 460 121 q 373 41 404 68 q 316 -8 342 13 q 274 -38 289 -30 l 274 -38 q 214 -162 243 -104 q 161 -257 185 -221 l 161 -257 q 122 -308 145 -282 q 72 -351 99 -334 q 15 -369 45 -369 l 15 -369 q 7 -368 11 -369 q -2 -367 3 -368 z m -12 -341 l -12 -341 q 6 -341 -6 -345 q 35 -323 17 -337 l 35 -323 q 102 -250 74 -292 q 153 -163 130 -209 q 197 -76 176 -118 l 197 -76 q 109 -144 158 -105 q 20 -223 60 -184 l 20 -223 q -13 -267 0 -243 q -27 -312 -27 -292 l -27 -312 q -12 -341 -27 -333 z"},"`":{"ha":239,"x_min":76,"x_max":236,"o":"m 228 694 l 228 694 q 202 702 222 694 q 158 722 182 710 q 114 744 134 733 q 86 761 93 755 l 86 761 q 79 767 82 764 q 76 774 76 770 l 76 774 q 87 791 76 783 l 87 791 q 102 797 95 797 l 102 797 q 117 789 107 797 q 141 769 127 781 l 141 769 q 190 733 168 748 q 221 712 211 717 l 221 712 q 236 698 236 705 l 236 698 q 228 694 236 694 z"},">":{"ha":397,"x_min":82,"x_max":381,"o":"m 89 30 l 89 30 q 82 38 82 30 l 82 38 q 100 72 82 50 l 100 72 q 177 153 123 99 q 308 282 230 207 l 308 282 q 256 382 277 340 q 227 446 235 424 l 227 446 q 221 469 221 460 l 221 469 q 231 485 221 485 l 231 485 q 251 469 239 485 l 251 469 q 303 396 275 429 q 363 329 330 362 l 363 329 q 381 304 381 311 l 381 304 q 374 291 381 297 q 356 274 367 285 l 356 274 q 229 152 292 213 q 97 34 165 90 l 97 34 q 89 30 91 30 z"},"h":{"ha":455,"x_min":35,"x_max":523,"o":"m 48 -13 l 48 -13 q 44 -6 40 -13 l 44 -6 q 55 24 46 0 q 75 82 63 48 q 100 152 87 116 q 124 215 113 187 l 124 215 q 103 189 117 206 q 72 153 88 172 q 42 120 56 134 l 42 120 q 38 117 39 117 l 38 117 q 35 123 35 117 l 35 123 q 41 145 35 135 l 41 145 q 84 198 63 173 q 121 244 104 222 l 121 244 q 111 259 111 250 l 111 259 q 125 273 111 273 l 125 273 q 134 271 131 273 l 134 271 q 136 270 135 270 q 138 268 137 270 l 138 268 q 147 281 143 275 q 153 294 150 287 l 153 294 q 170 329 157 303 q 201 389 182 354 q 245 462 220 424 q 298 532 269 499 q 357 584 326 564 q 419 604 387 604 l 419 604 q 427 604 423 604 q 435 602 431 603 l 435 602 q 470 585 460 597 q 480 555 480 572 l 480 555 q 476 530 480 543 q 463 503 471 516 l 463 503 q 410 433 443 468 q 337 363 377 397 q 256 296 296 328 q 180 234 215 263 l 180 234 q 143 144 156 183 q 123 80 130 104 l 123 80 q 156 120 134 94 q 206 176 178 146 q 264 234 234 206 q 321 279 294 261 q 367 296 348 296 l 367 296 q 391 271 391 296 l 391 271 q 374 218 391 247 q 346 169 357 189 l 346 169 q 324 114 332 140 q 313 70 315 87 l 313 70 q 312 63 312 66 q 312 55 312 59 l 312 55 q 340 15 312 15 l 340 15 q 380 33 355 15 q 431 76 405 51 q 479 125 457 101 q 508 160 500 148 l 508 160 q 515 163 511 163 l 515 163 q 521 160 519 163 q 521 152 523 157 l 521 152 q 490 110 511 135 q 443 59 469 84 q 392 15 417 33 l 392 15 q 359 -2 379 5 q 318 -10 338 -10 l 318 -10 q 287 -2 302 -10 q 265 28 272 6 l 265 28 q 262 53 262 37 l 262 53 q 262 64 262 58 q 263 75 262 69 l 263 75 q 285 143 267 107 q 317 206 302 178 l 317 206 q 324 220 321 214 q 326 230 326 226 l 326 230 q 319 238 326 238 l 319 238 q 297 229 312 238 q 257 198 282 220 l 257 198 q 211 149 235 179 q 163 86 186 118 q 122 31 139 54 q 97 4 104 8 l 97 4 q 74 -6 92 1 q 48 -13 56 -13 z m 199 279 l 199 279 q 286 347 239 306 q 375 434 333 387 q 438 522 416 480 l 438 522 q 450 560 450 545 l 450 560 q 435 577 450 577 l 435 577 q 419 574 428 577 q 398 561 410 570 l 398 561 q 285 438 331 509 q 199 279 239 366 z"},"-":{"ha":376,"x_min":143,"x_max":379,"o":"m 161 170 l 161 170 q 143 180 143 170 l 143 180 q 155 197 143 188 q 176 206 166 206 l 176 206 q 214 207 187 206 q 272 208 241 207 q 323 208 303 208 l 323 208 q 364 204 348 208 q 379 194 379 199 l 379 194 q 367 185 379 188 q 342 181 355 182 q 324 178 329 179 l 324 178 q 268 175 300 177 q 206 172 235 173 q 161 170 176 170 z"},"i":{"ha":226,"x_min":11,"x_max":293,"o":"m 198 348 l 198 348 q 171 351 185 348 q 157 369 157 353 l 157 369 q 171 383 157 372 q 199 406 184 394 q 216 419 213 417 l 216 419 q 237 433 233 433 l 237 433 q 237 420 242 433 q 232 397 232 407 l 232 397 q 226 380 232 392 q 212 358 220 368 q 198 348 204 348 z m 89 -10 l 89 -10 q 57 -2 71 -10 q 35 28 42 6 l 35 28 q 34 34 34 31 q 33 41 33 37 l 33 41 q 42 91 33 61 q 64 149 51 121 l 64 149 q 50 130 58 141 q 27 100 42 118 l 27 100 q 18 96 23 96 l 18 96 q 11 104 11 96 l 11 104 q 15 114 11 110 l 15 114 q 62 173 41 147 q 92 217 82 199 l 92 217 q 92 219 92 218 q 91 220 91 219 l 91 220 q 94 229 91 223 l 94 229 q 111 270 102 253 q 129 288 119 286 l 129 288 q 133 289 131 288 q 137 289 135 289 l 137 289 q 157 284 148 289 q 166 269 166 279 l 166 269 q 160 247 166 260 q 143 215 153 234 l 143 215 q 104 132 121 169 q 84 70 86 94 l 84 70 q 83 63 83 66 q 83 55 83 59 l 83 55 q 109 15 83 15 l 109 15 q 150 33 125 15 q 201 76 175 50 q 249 125 227 101 q 278 160 270 148 l 278 160 q 284 163 281 163 l 284 163 q 291 160 288 163 q 291 152 293 157 l 291 152 q 261 110 282 135 q 213 59 239 84 q 161 15 186 33 l 161 15 q 129 -2 148 5 q 89 -10 109 -10 z"},"j":{"ha":215,"x_min":-259,"x_max":306,"o":"m 262 402 l 262 402 q 235 405 249 402 q 220 424 220 408 l 220 424 q 234 437 220 426 q 262 460 247 448 q 279 473 276 471 l 279 473 q 301 486 298 486 l 301 486 q 301 474 306 486 q 296 450 296 461 l 296 450 q 290 433 296 445 q 275 412 283 421 q 262 402 267 402 z m -204 -367 l -204 -367 q -214 -363 -209 -365 q -223 -361 -220 -362 l -223 -361 q -250 -338 -242 -351 q -259 -311 -259 -326 l -259 -311 q -243 -262 -259 -288 q -204 -208 -228 -236 l -204 -208 q -139 -147 -178 -178 q -58 -87 -100 -116 q 15 -38 -17 -59 l 15 -38 q 73 88 46 26 q 121 217 99 150 l 121 217 q 91 180 111 203 q 57 140 71 157 l 57 140 q 48 134 53 134 l 48 134 q 42 141 42 134 l 42 141 q 46 151 42 147 l 46 151 q 97 216 71 182 q 136 268 123 250 l 136 268 q 155 276 141 276 l 155 276 q 189 266 172 276 q 203 249 206 255 l 203 249 q 149 127 176 188 q 94 5 122 65 l 94 5 q 137 36 107 12 q 203 94 167 60 q 270 164 239 128 l 270 164 q 288 177 282 177 l 288 177 q 291 167 294 177 q 274 140 288 156 l 274 140 q 231 95 258 121 q 173 41 203 68 q 116 -8 142 13 q 74 -38 89 -30 l 74 -38 q 14 -162 43 -104 q -40 -257 -15 -221 l -40 -257 q -79 -308 -56 -282 q -129 -351 -102 -334 q -187 -369 -156 -369 l -187 -369 q -195 -368 -191 -369 q -204 -367 -199 -368 z m -214 -341 l -214 -341 q -206 -343 -210 -343 l -206 -343 q -166 -323 -190 -343 l -166 -323 q -99 -250 -128 -292 q -48 -163 -71 -209 q -4 -76 -25 -118 l -4 -76 q -92 -144 -43 -105 q -181 -223 -142 -184 l -181 -223 q -215 -268 -201 -243 q -229 -313 -229 -293 l -229 -313 q -214 -341 -229 -332 z"},"k":{"ha":344,"x_min":29,"x_max":469,"o":"m 388 -154 l 388 -154 q 318 -127 351 -154 q 256 -57 284 -101 q 209 38 228 -14 q 180 138 189 89 l 180 138 q 122 50 146 90 q 86 4 97 10 l 86 4 q 63 -6 81 1 q 36 -13 45 -13 l 36 -13 q 32 -6 29 -13 l 32 -6 q 42 20 34 -2 q 61 73 50 41 q 85 140 72 105 q 109 206 97 175 l 109 206 q 86 179 99 195 q 56 137 73 162 l 56 137 q 46 132 53 132 l 46 132 q 39 138 39 132 l 39 138 q 46 152 39 144 l 46 152 q 76 191 60 169 q 107 234 92 213 q 131 268 122 255 l 131 268 q 116 289 116 276 l 116 289 q 123 302 116 297 q 136 301 129 306 l 136 301 q 143 299 140 299 l 143 299 q 186 397 160 344 q 246 497 212 449 q 320 574 280 544 q 403 604 359 604 l 403 604 q 414 604 408 604 q 424 602 419 603 l 424 602 q 436 598 430 601 q 446 593 441 595 l 446 593 q 469 555 469 580 l 469 555 q 459 516 469 537 q 435 473 449 494 q 406 435 420 452 q 384 409 392 418 l 384 409 q 279 318 335 359 q 180 260 222 277 l 180 260 q 150 191 164 226 q 127 126 136 155 q 112 80 117 96 l 112 80 q 145 123 129 101 q 176 165 160 144 l 176 165 q 176 173 176 169 q 175 181 175 177 l 175 181 q 176 193 175 187 q 177 203 176 198 l 177 203 q 182 215 178 209 q 190 221 186 221 l 190 221 q 197 209 196 221 l 197 209 q 199 202 198 206 q 201 194 200 198 l 201 194 q 234 231 214 209 q 274 273 253 253 q 312 301 295 293 l 312 301 q 340 308 326 308 l 340 308 q 363 302 354 308 q 372 286 372 295 l 372 286 q 351 262 372 272 l 351 262 q 309 242 335 255 q 254 211 282 229 q 206 172 226 193 l 206 172 q 236 81 221 119 q 271 9 250 43 q 325 -69 291 -26 l 325 -69 q 372 -111 348 -95 q 415 -127 396 -127 l 415 -127 q 439 -119 432 -127 q 445 -101 445 -112 l 445 -101 q 439 -72 445 -88 q 425 -47 432 -57 l 425 -47 q 420 -36 420 -41 l 420 -36 q 424 -33 420 -33 l 424 -33 q 443 -41 433 -33 l 443 -41 q 457 -64 448 -47 q 465 -95 465 -82 l 465 -95 q 451 -128 465 -115 q 419 -148 437 -142 q 388 -154 401 -154 z m 192 294 l 192 294 q 279 346 235 313 q 361 424 323 379 l 361 424 q 378 447 366 430 q 405 484 390 463 q 429 526 419 505 q 439 561 439 547 l 439 561 q 433 575 439 571 l 433 575 q 424 578 430 578 l 424 578 q 387 561 408 578 l 387 561 q 276 445 320 509 q 192 294 231 380 z"},"l":{"ha":234,"x_min":29,"x_max":428,"o":"m 104 -10 l 104 -10 q 46 11 62 -10 q 29 63 29 32 l 29 63 q 43 136 29 92 q 78 231 56 180 q 126 333 100 282 q 177 426 151 383 q 221 494 202 468 l 221 494 q 262 544 240 519 q 311 586 284 569 q 372 603 338 603 l 372 603 q 412 591 395 603 q 428 553 428 578 l 428 553 q 425 530 428 543 q 413 503 421 517 l 413 503 q 268 307 352 397 q 89 140 183 217 l 89 140 q 82 113 85 125 q 76 94 78 101 l 76 94 q 75 84 75 89 q 75 73 75 78 l 75 73 q 83 31 75 49 q 110 13 91 13 l 110 13 q 155 31 128 13 q 208 74 181 48 q 257 123 235 99 q 288 160 279 147 l 288 160 q 294 163 291 163 l 294 163 q 301 159 298 163 q 300 149 303 155 l 300 149 q 268 107 290 132 q 219 57 246 82 q 167 12 192 31 l 167 12 q 104 -10 136 -10 z m 103 180 l 103 180 q 182 248 141 206 q 263 338 223 289 q 335 435 302 387 q 387 522 367 483 l 387 522 q 396 542 393 533 q 398 557 398 550 l 398 557 q 382 576 398 576 l 382 576 q 347 561 368 576 l 347 561 q 247 454 293 519 q 165 316 201 388 q 103 180 129 244 z"},"<":{"ha":379,"x_min":78,"x_max":377,"o":"m 227 29 l 227 29 q 209 45 219 29 l 209 45 q 156 118 184 83 q 95 183 127 152 l 95 183 q 78 209 78 200 l 78 209 q 85 223 78 216 q 102 239 91 229 l 102 239 q 230 361 166 299 q 361 479 294 423 l 361 479 q 370 483 365 483 l 370 483 q 377 475 377 483 l 377 475 q 373 463 377 471 q 358 442 369 454 l 358 442 q 282 360 335 414 q 149 231 229 305 l 149 231 q 203 131 181 173 q 232 69 224 89 l 232 69 q 236 46 236 57 l 236 46 q 227 29 236 29 z"},"m":{"ha":583,"x_min":15,"x_max":650,"o":"m 23 -13 l 23 -13 q 18 -6 15 -13 l 18 -6 q 33 30 22 1 q 57 97 43 58 q 83 172 70 136 l 83 172 q 62 143 73 157 q 42 120 50 129 l 42 120 q 38 117 39 117 l 38 117 q 35 123 35 117 l 35 123 q 41 145 35 135 l 41 145 q 73 188 62 172 q 92 216 84 203 q 107 244 99 228 l 107 244 q 115 271 109 255 q 141 287 120 287 l 141 287 q 172 274 172 287 l 172 274 q 170 266 172 270 q 166 256 168 261 l 166 256 q 140 194 154 229 q 115 128 126 159 q 97 80 103 97 l 97 80 q 130 120 108 94 q 181 176 152 145 q 240 234 209 206 q 297 279 270 261 q 343 297 324 297 l 343 297 q 366 271 366 297 l 366 271 q 350 219 366 251 l 350 219 q 331 179 343 204 q 312 140 319 153 l 312 140 q 353 176 330 156 q 402 212 376 195 q 449 237 427 229 l 449 237 q 469 244 454 239 q 495 248 484 248 l 495 248 q 510 238 510 248 l 510 238 q 503 223 510 231 l 503 223 q 473 168 486 197 q 451 112 459 138 q 441 70 443 86 l 441 70 q 440 63 440 66 q 440 55 440 59 l 440 55 q 466 15 440 15 l 466 15 q 507 33 482 15 q 558 76 532 50 q 606 125 584 101 q 635 160 627 148 l 635 160 q 641 163 638 163 l 641 163 q 648 160 645 163 q 648 152 650 157 l 648 152 q 618 110 639 135 q 570 59 596 84 q 518 15 543 33 l 518 15 q 486 -2 505 5 q 446 -10 466 -10 l 446 -10 q 414 -2 428 -10 q 392 28 399 6 l 392 28 q 389 51 389 37 l 389 51 q 395 101 389 73 q 408 148 401 129 l 408 148 q 422 180 413 162 q 437 209 430 197 l 437 209 q 377 173 406 197 q 325 125 348 149 q 285 84 301 100 l 285 84 q 270 66 281 73 q 248 59 258 59 l 248 59 q 233 72 233 59 l 233 72 q 236 84 233 77 l 236 84 q 259 134 246 108 q 282 180 271 159 q 296 209 292 201 l 296 209 q 304 231 304 223 l 304 231 q 297 239 304 239 l 297 239 q 274 230 290 239 q 232 198 258 221 l 232 198 q 186 149 211 179 q 138 86 161 118 q 98 31 115 54 q 73 4 80 8 l 73 4 q 50 -6 67 1 q 23 -13 32 -13 z"},"n":{"ha":404,"x_min":-9,"x_max":475,"o":"m -2 -13 l -2 -13 q -6 -6 -9 -13 l -6 -6 q 5 22 -3 0 q 24 73 13 43 q 45 135 34 103 q 66 195 56 167 q 81 239 75 223 l 81 239 q 85 257 83 245 q 94 278 87 268 q 116 287 100 287 l 116 287 q 146 273 146 287 l 146 273 q 141 256 146 268 l 141 256 q 115 194 129 229 q 90 128 101 159 q 73 80 79 97 l 73 80 q 106 120 83 94 q 156 176 128 146 q 215 234 184 206 q 272 280 245 262 q 317 297 298 297 l 317 297 q 341 271 341 297 l 341 271 q 336 244 341 262 l 336 244 q 313 196 327 219 q 288 146 299 172 l 288 146 q 266 70 269 99 l 266 70 q 265 63 265 66 q 265 55 265 59 l 265 55 q 292 15 265 15 l 292 15 q 332 33 307 15 q 384 76 357 51 q 431 125 410 101 q 460 160 452 148 l 460 160 q 466 163 463 163 l 466 163 q 473 160 470 163 q 473 152 475 157 l 473 152 q 443 110 464 135 q 395 59 421 84 q 344 15 369 33 l 344 15 q 307 -3 329 5 q 263 -10 285 -11 l 263 -10 q 223 10 235 -7 q 211 49 211 26 l 211 49 q 222 107 211 76 q 245 164 232 137 q 266 205 258 191 l 266 205 q 274 230 274 221 l 274 230 q 267 238 274 238 l 267 238 q 246 229 260 238 q 208 198 232 220 l 208 198 q 161 149 186 179 q 113 86 136 118 q 72 31 89 54 q 47 4 54 8 l 47 4 q 25 -6 42 1 q -2 -13 7 -13 z"},"#":{"ha":773,"x_min":15,"x_max":748,"o":"m 401 -1 l 401 -1 q 392 4 397 -1 q 387 17 387 9 l 387 17 q 396 59 387 26 q 420 137 405 91 l 420 137 q 318 136 370 136 q 219 135 266 136 l 219 135 q 197 71 206 97 q 186 36 188 44 l 186 36 q 176 11 182 18 q 163 4 169 4 l 163 4 q 152 9 157 4 q 147 22 147 14 l 147 22 q 156 61 147 30 q 180 135 165 91 l 180 135 q 98 134 131 134 q 55 132 65 134 l 55 132 q 25 136 34 131 q 15 148 15 141 l 15 148 q 27 164 15 157 l 27 164 q 78 170 32 168 q 191 171 124 171 l 191 171 q 223 267 206 216 q 259 365 240 317 l 259 365 q 170 364 206 364 q 123 363 133 364 l 123 363 q 92 367 101 362 q 82 379 82 372 l 82 379 q 94 395 82 388 l 94 395 q 150 400 99 398 q 271 402 200 402 l 271 402 q 316 526 297 473 q 339 589 335 578 l 339 589 q 367 635 356 635 l 367 635 q 373 614 374 635 l 373 614 l 374 613 q 365 580 374 610 q 341 504 355 550 q 307 402 326 457 l 307 402 l 511 402 q 555 523 536 471 q 578 584 574 574 l 578 584 q 595 619 586 606 q 608 631 603 631 l 608 631 q 613 609 614 631 l 613 609 l 614 609 q 605 577 614 606 q 581 502 595 547 q 548 402 566 456 l 548 402 l 694 399 q 734 395 719 398 q 748 386 748 391 l 748 386 q 728 374 748 380 l 728 374 l 728 373 q 699 371 725 372 q 630 370 672 370 q 537 368 588 369 l 537 368 q 503 267 521 318 q 471 171 485 215 l 471 171 l 626 169 q 666 164 651 168 q 681 154 681 159 l 681 154 q 662 143 681 147 l 662 143 l 662 142 q 630 140 658 141 q 558 139 602 139 q 459 137 513 138 l 459 137 q 438 69 446 97 q 426 33 429 41 l 426 33 q 414 7 420 14 q 401 -1 407 -1 z m 295 365 l 229 171 l 432 171 q 465 268 447 217 q 500 368 483 319 l 500 368 q 396 367 449 367 q 295 365 342 367 l 295 365 z"},"o":{"ha":347,"x_min":34,"x_max":422,"o":"m 118 -11 l 118 -11 q 69 2 90 -11 l 69 2 q 34 78 34 23 l 34 78 q 42 131 34 101 l 42 131 q 67 186 49 156 q 110 242 85 215 q 163 286 134 269 q 221 303 192 303 l 221 303 q 242 300 233 303 l 242 300 q 263 286 254 296 q 271 259 271 275 l 271 259 q 263 240 271 242 q 254 244 254 238 l 254 244 q 255 248 254 246 q 255 251 255 250 l 255 251 q 251 266 255 259 q 234 272 246 272 l 234 272 q 195 255 218 272 q 147 210 171 238 q 104 147 122 181 q 79 79 85 113 l 79 79 q 78 70 78 74 q 77 60 77 65 l 77 60 q 88 22 77 37 q 121 6 98 6 l 121 6 q 175 28 149 6 q 222 79 201 49 q 252 132 242 109 l 252 132 q 263 163 260 150 q 266 185 266 176 l 266 185 q 265 199 266 193 q 261 209 263 205 l 261 209 q 259 218 259 215 l 259 218 q 266 231 259 226 q 279 236 272 236 l 279 236 q 292 232 285 236 l 292 232 q 314 229 300 230 q 344 228 328 228 l 344 228 q 379 229 361 228 q 409 233 396 230 l 409 233 q 415 234 411 234 l 415 234 q 422 230 422 234 l 422 230 q 415 223 422 226 l 415 223 q 353 206 380 207 q 305 205 325 205 l 305 205 q 294 152 307 180 q 267 101 281 123 l 267 101 q 228 50 250 76 q 179 7 206 24 q 118 -11 152 -11 z"},"p":{"ha":369,"x_min":-140,"x_max":353,"o":"m -128 -342 l -128 -342 q -140 -332 -140 -342 l -140 -332 q -137 -321 -140 -328 l -137 -321 q -103 -243 -125 -295 q -54 -125 -81 -192 q -1 11 -28 -59 l -1 11 q 46 132 23 73 q 83 239 68 191 q 98 312 98 286 l 98 312 q 109 322 98 320 q 130 323 120 323 l 130 323 q 163 301 163 323 l 163 301 q 143 254 163 283 l 143 254 q 112 195 125 225 q 86 132 99 164 l 86 132 q 131 195 110 164 q 180 248 152 226 l 180 248 q 224 276 202 265 q 270 286 245 286 l 270 286 q 322 274 296 286 q 352 234 348 261 l 352 234 q 353 228 353 231 q 353 221 353 224 l 353 221 q 333 153 353 186 q 284 93 312 119 q 232 51 256 67 l 232 51 q 184 25 212 39 q 124 1 155 11 q 63 -9 92 -9 l 63 -9 q 33 -5 45 -9 l 33 -5 q 3 -82 20 -35 q -29 -176 -14 -130 l -29 -176 q -34 -208 -36 -196 q -39 -240 -32 -221 l -39 -240 q -52 -278 -45 -260 q -68 -314 -59 -297 l -68 -314 q -80 -325 -70 -318 q -104 -337 -91 -332 q -128 -342 -118 -342 z m 41 11 l 41 11 q 108 26 73 11 q 177 66 143 41 q 239 121 211 91 q 283 178 266 150 l 283 178 q 303 237 303 210 l 303 237 q 276 268 303 268 l 276 268 q 259 266 269 268 q 236 256 249 263 l 236 256 q 149 191 183 228 q 91 108 115 153 q 41 11 67 63 z"},"(":{"ha":380,"x_min":30,"x_max":470,"o":"m 91 -161 l 91 -161 q 76 -152 80 -161 l 76 -152 q 42 -58 53 -108 q 30 43 30 -8 l 30 43 q 78 257 30 155 l 78 257 q 176 406 116 341 q 309 514 236 471 q 454 573 381 557 l 454 573 q 461 574 457 574 l 461 574 q 470 568 470 574 l 470 568 q 452 550 470 557 l 452 550 q 315 481 381 527 q 196 371 248 435 q 116 225 144 306 l 116 225 q 95 137 103 184 q 87 42 87 89 l 87 42 q 96 -49 87 -5 q 121 -129 104 -94 l 121 -129 q 115 -150 127 -140 q 91 -161 103 -161 z"},")":{"ha":517,"x_min":-36,"x_max":402,"o":"m -21 -152 l -21 -152 q -28 -153 -24 -153 l -28 -153 q -36 -147 -36 -153 l -36 -147 q -31 -138 -36 -143 q -18 -131 -27 -133 l -18 -131 q 119 -61 53 -108 q 237 51 185 -15 q 317 196 289 116 l 317 196 q 339 284 331 237 q 347 376 347 330 l 347 376 q 339 468 347 423 q 312 549 330 513 l 312 549 q 318 571 306 561 q 342 581 329 581 l 342 581 q 357 573 353 581 l 357 573 q 391 478 380 528 q 402 376 402 428 l 402 376 q 356 164 402 265 l 356 164 q 258 15 318 80 q 125 -93 197 -51 q -21 -152 53 -136 z"},"%":{"ha":463,"x_min":60,"x_max":454,"o":"m 70 -12 l 70 -12 q 60 -5 60 -12 l 60 -5 q 78 36 60 3 q 124 116 95 68 q 188 220 153 164 q 258 332 223 276 q 323 434 293 387 q 372 510 353 481 l 372 510 q 301 499 339 499 l 301 499 q 250 506 271 499 l 250 506 q 252 494 251 501 q 251 478 252 486 l 251 478 q 228 416 247 445 q 182 369 208 387 q 129 350 156 351 l 129 350 q 77 371 92 349 q 66 420 62 392 l 66 420 q 90 487 71 459 q 137 529 109 514 q 192 544 164 544 l 192 544 q 215 541 204 544 q 236 529 226 537 l 236 529 q 267 522 250 524 q 300 519 283 519 l 300 519 q 352 525 327 519 q 393 541 377 530 l 393 541 q 409 548 398 546 q 429 550 419 550 l 429 550 q 447 547 440 550 q 449 538 454 544 l 449 538 q 399 473 431 516 q 326 373 366 430 q 244 253 285 316 q 165 126 202 189 q 100 7 127 62 l 100 7 q 87 -6 96 -1 q 70 -12 78 -12 z m 129 369 l 129 369 q 165 383 149 369 q 192 414 180 396 q 208 446 203 432 l 208 446 q 214 466 211 454 q 216 490 216 478 l 216 490 q 210 516 216 504 q 187 527 204 527 l 187 527 q 152 514 168 527 q 125 482 136 500 q 108 450 114 464 l 108 450 q 103 430 105 442 q 100 406 100 418 l 100 406 q 107 381 100 392 q 129 369 113 369 z m 289 -1 l 289 -1 q 238 21 252 -1 q 227 72 224 43 l 227 72 q 251 136 232 109 q 298 178 270 163 q 353 193 325 193 l 353 193 q 395 182 376 193 q 413 139 413 170 l 413 139 q 394 71 413 103 q 347 19 375 39 q 289 -1 318 -1 z m 292 20 l 292 20 q 326 33 310 20 q 352 64 341 46 q 368 96 363 82 l 368 96 q 374 117 371 104 q 377 142 377 130 l 377 142 q 371 166 377 156 q 349 176 365 176 l 349 176 q 315 164 331 176 q 287 133 298 151 q 270 100 275 115 l 270 100 q 265 80 267 92 q 262 57 262 68 l 262 57 q 269 32 262 43 q 292 20 275 20 z"},".":{"ha":181,"x_min":94,"x_max":155,"o":"m 127 0 l 127 0 q 106 2 117 0 q 94 16 94 4 l 94 16 q 105 32 94 21 q 129 52 116 42 q 148 61 142 61 l 148 61 q 155 54 155 61 q 154 39 154 47 l 154 39 q 149 26 154 35 q 138 8 144 16 q 127 0 132 0 z"},"+":{"ha":614,"x_min":92,"x_max":549,"o":"m 227 -18 l 227 -18 q 216 -8 216 -18 l 216 -8 q 221 9 216 -3 l 221 9 q 236 42 225 17 q 264 101 247 66 q 297 174 280 136 l 297 174 q 212 172 252 173 q 145 171 172 171 q 113 170 118 170 l 113 170 q 92 180 92 170 l 92 180 q 103 197 92 188 q 124 206 114 206 l 124 206 l 312 206 q 354 297 335 256 q 380 350 372 337 l 380 350 q 402 369 390 369 l 402 369 q 410 359 410 369 l 410 359 q 404 337 410 351 l 404 337 l 347 208 l 521 208 q 549 195 549 208 l 549 195 q 522 178 549 181 l 522 178 q 482 177 511 177 q 415 176 453 176 q 333 174 376 175 l 333 174 l 259 1 q 246 -12 256 -6 q 227 -18 235 -18 z"},"q":{"ha":457,"x_min":12,"x_max":523,"o":"m 247 -374 l 247 -374 q 210 -364 228 -374 q 180 -335 192 -354 l 180 -335 q 164 -271 164 -310 l 164 -271 q 174 -199 164 -237 q 197 -126 184 -161 q 219 -66 210 -91 l 219 -66 q 243 1 228 -39 q 274 80 258 40 q 302 150 290 120 q 317 187 314 180 l 317 187 q 265 128 294 160 q 203 67 235 96 q 142 20 171 38 q 90 1 112 1 l 90 1 q 56 11 74 1 q 27 35 38 20 l 27 35 q 12 78 12 54 l 12 78 q 30 134 12 105 q 75 190 47 163 q 134 240 102 217 q 194 278 165 262 q 242 299 223 294 l 242 299 q 262 302 251 301 q 285 303 273 303 l 285 303 q 324 300 305 303 q 354 288 343 296 l 354 288 l 358 285 q 372 315 365 300 q 385 345 378 329 l 385 345 q 404 356 391 352 q 429 359 416 359 l 429 359 q 449 356 440 359 q 458 343 458 352 l 458 343 q 424 300 458 328 l 424 300 q 385 242 405 285 q 344 143 364 199 q 305 32 323 87 l 305 32 q 333 14 313 14 l 333 14 q 377 32 351 14 q 429 74 402 49 q 478 123 456 99 q 508 160 499 147 l 508 160 q 514 163 511 163 l 514 163 q 521 160 518 163 q 521 152 523 157 l 521 152 q 490 110 511 135 q 442 59 468 84 q 391 15 416 33 l 391 15 q 357 -3 378 5 q 314 -10 335 -11 l 314 -10 q 328 -93 322 -46 q 338 -184 334 -141 q 339 -250 341 -227 l 339 -250 q 305 -345 332 -316 q 247 -374 277 -374 z m 75 18 l 75 18 q 118 37 90 18 q 180 85 146 56 q 245 144 213 113 q 302 201 277 175 q 337 236 327 226 l 337 236 q 341 244 339 242 l 341 244 l 347 262 q 351 270 350 266 l 351 270 q 316 276 336 276 l 316 276 q 228 250 276 276 q 142 189 180 224 l 142 189 q 110 155 130 179 q 72 101 89 130 q 55 48 55 72 l 55 48 q 62 25 55 35 l 62 25 q 75 18 66 18 z m 242 -348 l 242 -348 q 289 -324 273 -348 q 310 -267 304 -301 q 315 -203 315 -233 l 315 -203 q 315 -181 315 -192 q 313 -164 314 -171 l 313 -164 q 307 -89 312 -132 q 296 -18 301 -46 l 296 -18 q 294 -11 296 -14 q 288 -16 291 -8 l 288 -16 q 252 -109 272 -59 q 219 -209 232 -159 q 210 -306 206 -260 l 210 -306 q 221 -338 212 -328 q 242 -348 230 -348 z"},"?":{"ha":472,"x_min":94,"x_max":457,"o":"m 185 143 l 185 143 q 176 154 175 143 l 176 154 q 210 215 180 184 q 274 276 240 246 l 274 276 q 337 335 310 307 q 378 397 363 362 q 392 482 392 431 l 392 482 q 373 542 392 517 q 322 566 354 566 l 322 566 q 256 545 288 566 q 198 501 223 524 l 198 501 q 174 471 187 490 q 148 437 160 452 q 129 422 136 422 l 129 422 q 123 441 123 422 l 123 441 q 136 507 123 476 q 189 543 149 538 l 189 543 q 208 549 198 544 q 225 557 218 553 l 225 557 q 277 576 248 568 q 335 583 306 583 l 335 583 q 410 565 376 583 q 453 499 443 546 l 453 499 q 456 483 455 491 q 457 467 457 475 l 457 467 q 431 381 457 420 q 366 310 404 341 q 294 254 328 278 l 294 254 q 232 205 260 230 q 197 152 203 179 l 197 152 q 185 143 196 143 z m 127 0 l 127 0 q 106 2 117 0 q 94 16 94 4 l 94 16 q 105 32 94 21 q 129 52 116 42 q 148 61 142 61 l 148 61 q 155 54 155 61 q 154 39 154 47 l 154 39 q 149 26 154 35 q 138 8 144 16 q 127 0 132 0 z"},"\"":{"ha":256,"x_min":77,"x_max":245,"o":"m 198 303 l 198 303 q 189 318 188 303 l 189 318 q 192 353 191 331 q 194 392 193 374 q 194 414 194 410 l 194 414 q 193 432 194 424 q 192 447 192 440 l 192 447 q 198 466 192 459 q 225 472 204 472 l 225 472 q 245 453 245 472 l 245 453 q 241 429 245 442 q 234 408 236 416 l 234 408 q 223 367 230 389 q 209 314 215 344 l 209 314 q 198 303 206 303 z m 85 303 l 85 303 q 80 307 82 303 q 78 318 77 311 l 78 318 q 81 346 80 329 q 81 379 81 363 l 81 379 l 81 414 q 81 432 82 423 q 80 447 80 440 l 80 447 q 86 465 80 458 q 112 472 92 472 l 112 472 q 128 466 124 472 q 132 451 132 460 l 132 451 q 129 429 132 441 q 123 408 125 416 l 123 408 q 110 367 118 389 q 95 314 102 344 l 95 314 q 85 303 92 303 z"},"'":{"ha":145,"x_min":77,"x_max":132,"o":"m 85 303 l 85 303 q 80 307 82 303 q 78 318 77 311 l 78 318 q 81 346 80 329 q 81 379 81 363 l 81 379 l 81 414 q 81 432 82 423 q 80 447 80 440 l 80 447 q 86 465 80 458 q 112 472 92 472 l 112 472 q 128 466 124 472 q 132 451 132 460 l 132 451 q 129 429 132 441 q 123 408 125 416 l 123 408 q 110 367 118 389 q 95 314 102 344 l 95 314 q 85 303 92 303 z"},"r":{"ha":314,"x_min":28,"x_max":383,"o":"m 172 -12 l 172 -12 q 142 -4 155 -12 q 124 24 129 3 l 124 24 q 121 46 121 35 l 121 46 q 137 105 121 76 q 173 158 152 133 q 209 199 194 182 l 209 199 q 228 220 217 207 q 238 246 238 233 l 238 246 q 230 262 238 254 q 201 272 222 269 l 201 272 q 179 276 189 274 q 157 277 168 277 l 157 277 q 103 201 129 239 q 46 125 76 162 l 46 125 q 34 118 39 118 l 34 118 q 28 124 28 118 l 28 124 q 34 136 28 130 l 34 136 q 127 277 88 202 l 127 277 q 112 278 122 277 q 96 279 102 278 l 96 279 q 85 285 89 281 q 81 293 81 289 l 81 293 q 86 300 81 299 l 86 300 q 114 312 99 304 q 142 333 129 320 l 142 333 q 168 363 156 347 q 187 386 180 378 l 187 386 q 202 391 194 391 l 202 391 q 212 388 207 391 q 216 379 216 385 l 216 379 q 210 361 216 372 l 210 361 q 191 330 201 347 q 171 299 180 313 l 171 299 q 207 297 189 298 q 244 296 225 296 l 244 296 q 264 297 254 296 q 283 297 273 297 l 283 297 q 313 282 313 297 l 313 282 q 303 258 313 272 q 277 226 292 243 l 277 226 q 219 144 243 187 q 187 78 195 101 l 187 78 q 179 42 179 54 l 179 42 q 198 18 179 18 l 198 18 q 240 35 215 18 q 290 77 264 52 q 337 125 316 101 q 367 160 358 148 l 367 160 q 373 163 369 163 l 373 163 q 380 160 377 163 q 380 151 383 156 l 380 151 q 348 109 369 134 q 301 58 327 83 q 250 15 275 33 l 250 15 q 215 -3 237 5 q 172 -12 192 -12 z"},"s":{"ha":296,"x_min":11,"x_max":372,"o":"m 51 -50 l 51 -50 q 11 -28 11 -50 l 11 -28 q 28 5 11 -12 l 28 5 q 57 26 41 18 q 77 34 73 34 l 77 34 q 83 30 82 34 q 78 24 83 26 l 78 24 q 56 8 68 18 q 43 -15 43 -3 l 43 -15 q 62 -31 43 -31 l 62 -31 q 110 -17 85 -31 q 157 17 135 -4 q 192 60 178 38 q 205 97 205 81 l 205 97 q 196 121 205 110 q 159 147 187 132 l 159 147 q 123 170 140 158 q 96 199 105 182 l 96 199 q 76 166 88 185 q 46 125 63 146 l 46 125 q 34 119 40 119 l 34 119 q 28 124 28 119 l 28 124 q 33 134 28 127 l 33 134 q 73 193 60 166 q 91 234 86 220 l 91 234 q 118 289 95 263 q 174 335 141 315 q 242 365 207 354 q 303 376 276 376 l 303 376 q 351 366 330 376 q 372 334 372 356 l 372 334 q 365 308 372 322 l 365 308 q 335 274 356 289 l 335 274 q 332 273 334 273 l 332 273 q 324 280 324 273 l 324 280 q 329 290 324 285 l 329 290 q 342 307 337 297 q 347 326 347 317 l 347 326 q 326 344 347 344 l 326 344 q 269 332 304 344 q 203 301 233 320 l 203 301 q 146 253 169 279 q 123 207 123 227 l 123 207 q 130 189 123 197 q 155 169 136 180 l 155 169 q 183 154 165 163 q 214 136 201 144 l 214 136 q 255 83 255 111 l 255 83 q 235 37 255 60 q 184 -6 215 13 q 117 -38 152 -26 q 51 -50 82 -50 z"},";":{"ha":166,"x_min":34,"x_max":206,"o":"m 178 159 l 178 159 q 157 161 168 159 q 145 175 145 163 l 145 175 q 156 189 145 178 q 180 210 167 200 q 199 220 193 220 l 199 220 q 206 212 206 220 q 206 196 206 204 l 206 196 q 201 183 206 192 q 190 167 196 174 q 178 159 183 159 z m 45 -119 l 45 -119 q 39 -121 42 -121 l 39 -121 q 35 -117 35 -121 q 34 -113 34 -114 l 34 -113 q 41 -103 34 -112 q 56 -85 47 -95 l 56 -85 q 82 -49 70 -68 q 101 -9 94 -31 l 101 -9 q 105 8 105 0 l 105 8 q 101 23 105 18 q 96 35 96 27 l 96 35 q 97 44 96 41 l 97 44 q 111 53 100 53 q 125 53 121 53 l 125 53 q 144 42 137 53 q 151 21 151 30 l 151 21 q 138 -9 151 11 q 107 -52 125 -29 q 71 -94 88 -75 q 45 -119 54 -113 z"},"/":{"ha":466,"x_min":16,"x_max":454,"o":"m 28 -12 l 28 -12 q 20 -1 16 -12 l 20 -1 q 45 44 24 11 q 98 123 66 77 q 168 222 130 169 q 244 328 205 275 q 317 425 283 380 q 376 501 351 470 q 410 541 400 532 l 410 541 q 424 549 415 546 q 439 551 432 551 l 439 551 q 451 548 447 551 q 449 538 454 545 l 449 538 q 393 473 429 516 q 313 372 357 429 q 222 252 269 315 q 133 125 175 188 q 58 7 90 62 l 58 7 q 44 -6 53 -1 q 28 -12 35 -12 z"},"t":{"ha":226,"x_min":11,"x_max":310,"o":"m 89 -10 l 89 -10 q 57 -2 71 -10 q 35 28 42 6 l 35 28 q 34 34 34 31 q 33 41 33 37 l 33 41 q 42 91 33 61 q 64 149 51 121 l 64 149 q 50 130 58 141 q 27 100 42 118 l 27 100 q 18 96 23 96 l 18 96 q 11 104 11 96 l 11 104 q 15 114 11 110 l 15 114 q 62 173 41 147 q 92 217 82 199 l 92 217 q 98 230 92 219 q 114 259 104 240 l 114 259 q 101 258 106 258 q 91 257 95 257 l 91 257 q 79 263 84 257 q 78 278 74 269 l 78 278 q 100 294 83 292 q 130 297 117 296 l 130 297 q 134 299 131 299 l 134 299 q 157 342 146 321 q 176 377 168 363 q 183 392 183 391 l 183 392 q 209 435 203 424 q 225 447 215 445 l 225 447 q 249 446 236 448 q 265 437 261 444 l 265 437 q 268 427 268 433 l 268 427 q 264 410 268 418 q 256 396 260 401 l 256 396 q 246 387 252 389 q 234 374 239 384 l 234 374 q 212 333 224 355 q 187 291 200 311 l 187 291 l 199 292 q 245 297 223 294 q 294 299 266 300 l 294 299 q 305 298 299 299 q 310 293 310 296 l 310 293 q 284 282 310 289 l 284 282 q 241 274 274 278 q 172 265 207 269 l 172 265 q 154 234 162 246 q 143 215 146 221 l 143 215 q 104 132 121 169 q 84 70 86 94 l 84 70 q 83 63 83 66 q 83 55 83 59 l 83 55 q 109 15 83 15 l 109 15 q 150 33 125 15 q 201 76 175 50 q 249 125 227 101 q 278 160 270 148 l 278 160 q 284 163 281 163 l 284 163 q 291 160 288 163 q 291 152 293 157 l 291 152 q 261 110 282 135 q 213 59 239 84 q 161 15 186 33 l 161 15 q 129 -2 148 5 q 89 -10 109 -10 z"},"u":{"ha":444,"x_min":32,"x_max":512,"o":"m 307 -10 l 307 -10 q 275 -2 289 -10 q 254 28 261 6 l 254 28 q 252 40 253 33 q 250 53 250 46 l 250 53 q 257 107 250 77 q 271 157 263 137 l 271 157 q 257 137 267 154 q 232 98 247 120 q 199 53 217 75 q 159 16 180 30 q 113 1 137 1 l 113 1 q 75 10 97 1 q 42 35 52 19 l 42 35 q 32 75 32 51 l 32 75 q 45 139 32 104 q 78 203 58 173 l 78 203 q 94 227 85 213 q 112 252 103 241 q 125 263 121 262 l 125 263 q 153 267 137 267 l 153 267 q 178 263 170 267 l 178 263 q 185 256 185 260 l 185 256 q 177 243 185 251 l 177 243 q 147 213 166 233 q 110 165 128 193 q 79 103 91 137 l 79 103 q 69 56 69 76 l 69 56 q 97 21 69 21 l 97 21 q 148 41 121 21 q 201 90 175 61 q 247 148 226 119 q 278 193 267 176 l 278 193 q 301 229 288 207 q 325 272 313 251 q 344 303 337 293 l 344 303 q 366 301 351 303 q 391 292 380 298 q 396 277 401 286 l 396 277 q 378 246 390 267 q 353 204 365 225 q 333 169 340 182 l 333 169 q 302 70 309 123 l 302 70 q 301 63 301 66 q 301 55 301 59 l 301 55 q 328 15 301 15 l 328 15 q 368 33 343 15 q 420 76 393 51 q 468 125 446 101 q 497 160 489 148 l 497 160 q 503 163 499 163 l 503 163 q 510 160 507 163 q 509 152 512 157 l 509 152 q 479 110 500 135 q 431 59 457 84 q 380 15 405 33 l 380 15 q 347 -2 367 5 q 307 -10 327 -10 z"},"_":{"ha":630,"x_min":0,"x_max":630,"o":"m 630 -53 l 0 -53 l 0 -27 l 630 -27 l 630 -53 z"},"v":{"ha":314,"x_min":34,"x_max":465,"o":"m 72 -32 l 72 -32 q 46 -16 53 -32 q 40 16 39 0 l 40 16 q 55 76 45 45 q 73 136 64 106 l 73 136 q 78 154 75 143 q 84 178 81 165 l 84 178 q 69 156 77 168 q 51 131 60 144 l 51 131 q 42 126 47 126 l 42 126 q 36 131 38 126 q 38 140 34 135 l 38 140 q 74 197 61 172 q 92 236 87 221 l 92 236 q 88 270 94 256 q 64 283 81 283 l 64 283 q 58 283 61 283 q 51 281 55 282 l 51 281 q 50 281 50 281 q 48 280 49 280 l 48 280 q 45 283 45 280 l 45 283 q 51 294 45 286 l 51 294 q 66 299 55 297 q 87 301 77 300 q 99 302 97 302 l 99 302 q 125 300 113 302 q 145 288 137 298 l 145 288 q 153 275 150 283 q 154 259 156 267 l 154 259 q 149 239 154 253 q 137 207 143 224 q 125 177 130 190 q 118 158 119 163 l 118 158 q 98 96 108 130 q 90 44 88 62 l 90 44 q 186 168 137 106 q 292 283 235 230 l 292 283 q 339 326 315 306 q 393 357 363 345 l 393 357 q 417 362 406 362 l 417 362 q 445 356 433 362 q 461 342 457 350 l 461 342 q 465 331 465 339 l 465 331 q 457 319 465 319 l 457 319 q 449 323 455 319 l 449 323 q 434 328 444 328 q 415 328 424 328 l 415 328 q 363 307 394 328 q 295 252 331 286 q 222 178 258 218 q 156 98 186 138 q 106 26 125 58 q 84 -23 86 -6 l 84 -23 q 79 -30 84 -28 q 72 -32 74 -32 z"},"w":{"ha":549,"x_min":34,"x_max":587,"o":"m 319 -3 l 319 -3 q 284 6 300 -3 q 261 35 268 14 l 261 35 q 254 92 254 58 l 254 92 q 257 127 254 109 q 263 157 259 144 l 263 157 q 244 124 258 148 q 209 71 230 99 q 162 22 188 42 q 104 1 135 1 l 104 1 q 49 22 64 1 q 34 71 34 42 l 34 71 q 49 144 34 106 q 78 203 63 181 l 78 203 q 99 233 85 213 q 127 271 113 253 q 145 290 140 288 l 145 290 q 158 293 151 292 q 172 294 165 294 l 172 294 q 198 288 188 294 l 198 288 q 208 278 208 285 l 208 278 q 203 270 208 275 l 203 270 q 168 234 192 261 q 121 173 144 207 q 85 104 97 138 l 85 104 q 72 51 72 72 l 72 51 q 94 21 72 21 l 94 21 q 154 52 115 21 l 154 52 q 208 107 182 74 q 257 177 234 140 q 297 244 279 213 l 297 244 q 314 251 300 251 l 314 251 q 348 244 331 251 q 357 226 364 236 l 357 226 q 313 125 328 179 l 313 125 q 307 96 310 113 q 303 61 303 78 l 303 61 q 309 30 303 43 q 331 17 315 17 l 331 17 q 348 20 339 17 q 367 29 356 22 l 367 29 q 442 84 405 49 q 506 161 478 118 q 543 244 534 203 l 543 244 q 546 273 546 256 l 546 273 q 540 312 546 293 q 516 337 533 330 l 516 337 q 503 340 510 339 q 488 339 496 340 l 488 339 l 486 339 q 481 344 481 339 l 481 344 q 486 351 481 349 l 486 351 q 517 354 498 354 l 517 354 q 554 348 535 354 q 579 325 572 342 l 579 325 q 587 287 587 306 l 587 287 q 566 208 587 250 q 511 127 544 166 l 511 127 q 453 67 485 95 q 398 23 421 39 l 398 23 q 364 5 385 13 q 319 -3 342 -3 z"},"x":{"ha":409,"x_min":-30,"x_max":478,"o":"m -21 -192 l -21 -192 q -30 -181 -30 -192 l -30 -181 q -8 -102 -30 -144 q 45 -18 13 -60 q 108 58 76 23 q 161 115 139 92 q 182 141 182 137 l 182 141 q 176 170 182 151 q 160 204 170 188 q 138 219 150 219 l 138 219 q 105 196 123 219 q 60 142 86 172 l 60 142 q 49 135 54 135 l 49 135 q 43 142 43 135 l 43 142 q 47 152 43 148 l 47 152 q 71 184 56 163 q 103 226 86 204 q 137 262 120 247 q 165 276 153 276 l 165 276 q 201 261 190 276 q 218 224 212 246 q 232 176 224 201 l 232 176 q 304 241 269 211 q 382 297 339 270 l 382 297 q 397 301 389 301 l 397 301 q 418 294 409 301 q 427 276 427 287 l 427 276 q 418 266 427 266 q 403 263 408 265 l 403 263 q 345 235 366 249 q 308 208 324 221 l 308 208 l 237 151 q 248 111 237 140 q 273 55 259 82 l 273 55 q 316 20 292 20 l 316 20 q 348 31 332 20 q 380 58 364 42 l 380 58 q 428 116 404 85 q 461 160 451 146 l 461 160 q 468 163 464 163 l 468 163 q 476 159 473 163 q 473 149 478 155 l 473 149 q 453 121 467 141 q 420 78 438 101 q 382 36 401 55 l 382 36 q 335 2 355 11 q 297 -7 314 -7 l 297 -7 q 288 -6 293 -7 q 278 -5 283 -6 l 278 -5 q 240 21 256 0 q 212 68 223 42 q 193 112 200 94 l 193 112 q 150 66 175 93 q 96 6 124 38 q 44 -61 68 -27 q 4 -126 19 -95 q -13 -181 -12 -157 l -13 -181 q -21 -192 -14 -192 z"},"y":{"ha":415,"x_min":-58,"x_max":488,"o":"m -2 -367 l -2 -367 q -23 -361 -14 -364 l -23 -361 q -50 -338 -42 -351 q -58 -312 -58 -326 l -58 -312 q -42 -262 -58 -289 q -2 -208 -27 -236 l -2 -208 q 62 -147 23 -178 q 142 -87 100 -116 q 216 -38 184 -59 l 216 -38 q 252 37 233 -3 q 287 115 270 77 q 317 183 304 152 q 335 231 329 214 l 335 231 q 298 184 319 212 q 252 124 277 155 q 201 64 227 92 q 146 19 174 36 q 91 1 118 1 l 91 1 q 36 22 51 1 q 20 70 20 42 l 20 70 q 26 110 20 90 q 40 147 31 130 l 40 147 q 59 179 46 159 q 89 220 72 199 q 124 255 106 241 q 157 269 141 269 l 157 269 q 186 256 176 269 q 188 237 196 242 l 188 237 q 149 204 172 226 q 102 152 125 181 l 102 152 q 88 127 96 144 q 72 91 79 110 q 65 55 65 71 l 65 55 q 67 42 65 48 q 74 32 69 35 l 74 32 q 92 26 82 26 l 92 26 q 124 35 106 26 q 157 58 141 44 l 157 58 q 257 171 213 112 q 350 288 301 230 l 350 288 q 367 298 353 298 l 367 298 q 401 289 383 298 q 415 273 418 279 l 415 273 q 392 220 406 253 q 360 149 377 187 q 326 74 343 111 q 295 6 309 36 l 295 6 q 338 36 307 12 q 406 95 369 60 q 473 166 443 129 l 473 166 q 482 172 479 172 l 482 172 q 488 164 488 172 l 488 164 q 482 148 488 157 l 482 148 q 441 101 467 128 q 384 47 414 74 q 324 -3 353 19 q 274 -38 295 -26 l 274 -38 q 214 -162 243 -104 q 161 -257 185 -221 l 161 -257 q 122 -308 145 -282 q 72 -351 99 -334 q 15 -369 45 -369 l 15 -369 q 7 -368 11 -369 q -2 -367 3 -368 z m 1 -345 l 1 -345 q 21 -340 9 -345 q 45 -324 32 -335 l 45 -324 q 109 -251 83 -293 q 156 -164 135 -210 q 197 -76 176 -118 l 197 -76 q 109 -144 158 -105 q 20 -223 60 -184 l 20 -223 q -15 -270 -4 -247 q -26 -312 -26 -294 l -26 -312 q 1 -345 -26 -345 z"},"z":{"ha":421,"x_min":10,"x_max":494,"o":"m 284 -33 l 284 -33 q 243 -40 264 -40 l 243 -40 q 190 -29 216 -40 q 134 0 163 -18 l 134 0 q 95 18 117 10 l 95 18 q 59 -4 76 5 q 27 -14 41 -14 l 27 -14 q 16 -12 19 -14 l 16 -12 q 10 3 10 -9 l 10 3 q 25 38 10 18 q 76 58 40 58 l 76 58 q 116 52 95 58 l 116 52 q 147 79 142 72 l 147 79 q 230 154 188 114 q 302 223 271 193 l 302 223 q 257 236 277 231 q 216 244 237 241 l 216 244 q 206 246 211 245 q 196 246 201 246 l 196 246 q 157 238 173 246 q 127 217 141 230 l 127 217 q 94 184 110 202 q 64 147 78 165 l 64 147 q 55 136 61 143 q 45 132 49 128 l 45 132 q 41 140 41 136 l 41 140 q 44 148 41 144 l 44 148 q 85 204 66 178 q 112 240 103 229 l 112 240 q 150 278 131 268 q 188 287 169 287 l 188 287 q 223 283 205 287 q 260 273 241 278 l 260 273 q 299 265 278 269 q 337 256 319 260 l 337 256 q 366 274 345 263 q 400 285 386 285 l 400 285 q 414 271 414 285 l 414 271 q 399 241 414 254 q 363 221 383 227 q 328 217 342 214 l 328 217 q 246 148 294 188 q 157 70 198 107 l 157 70 q 145 60 151 66 q 130 47 138 54 l 130 47 q 146 40 138 43 q 160 33 153 37 l 160 33 q 214 4 188 16 q 264 -8 239 -8 l 264 -8 q 311 5 288 -8 l 311 5 q 363 44 332 17 q 425 102 394 70 q 475 160 456 134 l 475 160 q 485 164 478 164 l 485 164 q 492 163 489 164 q 492 157 494 161 l 492 157 q 466 121 484 143 q 423 75 447 99 q 375 29 399 50 q 332 -7 351 7 l 332 -7 q 303 -25 314 -20 q 284 -33 292 -31 z"}}}
